<svg width="41" height="41" viewBox="0 0 41 41" fill="none" xmlns="http://www.w3.org/2000/svg">
<path d="M20.5002 41.0003C31.5956 41.0003 40.5902 32.0057 40.5902 20.9103C40.5902 9.81491 31.5956 0.820312 20.5002 0.820312C9.40476 0.820312 0.410156 9.81491 0.410156 20.9103C0.410156 32.0057 9.40476 41.0003 20.5002 41.0003Z" fill="#20C4CB"/>
<path d="M25.7071 24.2726C24.8871 25.1746 23.7391 25.6256 23.2061 25.6256C22.5911 25.6256 22.2631 25.2566 22.1811 24.6826C22.1401 24.4776 22.1811 24.2316 22.2221 24.0266C22.4271 22.7556 22.8781 21.9356 22.8781 21.7306C22.8781 21.6486 22.8371 21.6076 22.7961 21.6076C22.3861 21.6076 20.9921 23.0426 20.7871 23.9856L20.6231 24.7646C20.5001 25.2976 20.0081 25.6256 19.6391 25.6256C19.4751 25.6256 19.3521 25.5436 19.3111 25.3386C19.3111 25.2566 19.3111 25.1746 19.3111 25.0926L19.3931 24.6826C18.6551 25.2566 17.8351 25.6256 17.4661 25.6256C16.9331 25.6256 16.6461 25.3386 16.5641 24.9286C16.2361 25.3796 15.7851 25.6256 15.2931 25.6256C14.6781 25.6256 14.1041 25.2156 13.8171 24.6006C13.4071 25.0516 12.9151 25.5026 12.3411 25.8716C11.4801 26.4046 10.5371 26.8556 9.43011 26.8556C8.40511 26.8556 7.50311 26.3226 7.05211 25.8716C6.31411 25.2156 5.94511 24.1906 5.82211 23.2886C5.45311 20.4186 7.21611 16.6056 9.96311 14.9656C10.5781 14.5966 11.2751 14.3916 11.9311 14.3916C13.2431 14.3916 14.2271 15.3346 14.3501 16.4416C14.4731 17.4666 14.0631 18.3276 12.9561 18.8606C12.3821 19.1476 12.0951 19.1476 12.0131 18.9836C11.9721 18.9016 11.9721 18.7376 12.0951 18.6556C13.1611 17.7946 13.1611 17.0566 13.0381 16.0316C12.9561 15.3756 12.5461 14.9656 12.0541 14.9656C9.92211 14.9656 6.97011 19.5986 7.38011 22.9606C7.54411 24.2726 8.36411 25.7896 10.0041 25.7896C10.5371 25.7896 11.1521 25.6256 11.6441 25.3796C12.5461 24.9286 13.0791 24.5596 13.5711 23.9446C13.4481 22.3866 14.8011 20.4186 16.7691 20.4186C17.6301 20.4186 18.3271 20.7466 18.4091 21.4436C18.5321 22.3046 17.7941 22.4686 17.5071 22.4686C17.2611 22.4686 16.8921 22.3866 16.8511 22.1816C16.8101 21.9356 17.3841 22.0586 17.3021 21.5256C17.2611 21.1976 16.8921 21.0746 16.5641 21.0746C15.3341 21.0746 14.6371 22.7966 14.7601 23.8626C14.8011 24.3546 15.0881 24.8466 15.4981 24.8466C15.8671 24.8466 16.4001 24.3136 16.5641 23.5756C16.6871 23.0426 17.1791 22.7146 17.5481 22.7146C17.7531 22.7146 17.8761 22.7966 17.8761 23.0016C17.8761 23.0836 17.8761 23.1656 17.8761 23.2476C17.8351 23.4526 17.6711 24.2316 17.6711 24.3546C17.6711 24.4776 17.7531 24.6826 17.9991 24.6826C18.2041 24.6826 18.8601 24.3136 19.5161 23.7396C19.7211 22.7146 19.9671 21.4436 19.9671 21.3616C20.0491 20.9516 20.2131 20.5006 21.0331 20.5006C21.1971 20.5006 21.3201 20.5826 21.3611 20.7876C21.3611 20.8696 21.3611 20.9516 21.3611 21.0336L21.1561 22.1406C21.8941 21.1566 23.0421 20.4186 23.7391 20.4186C24.0261 20.4186 24.2721 20.5826 24.3131 20.8696C24.3541 21.0336 24.2721 21.3206 24.1901 21.6486C23.9441 22.3046 23.6571 23.3296 23.4931 24.1906C23.4521 24.3956 23.5341 24.6416 23.8621 24.6416C24.1491 24.6416 25.0101 24.3136 25.7071 23.3706C25.7071 23.2476 25.7071 23.1246 25.7071 22.9606C25.7071 22.2226 25.7481 21.6486 25.9121 21.1976C26.0351 20.7466 26.6091 20.3366 26.9781 20.3366C27.1831 20.3366 27.3061 20.4596 27.3061 20.6646C27.3061 20.7466 27.3061 20.8286 27.2651 20.9106C27.0191 21.6896 26.8551 22.3866 26.8551 23.0836C26.8551 23.4936 26.9371 24.1086 27.0191 24.4366C27.0191 24.5186 27.0601 24.5596 27.1421 24.5596C27.2651 24.5596 28.0851 23.7806 28.6591 22.7966C28.1261 22.4686 27.8391 21.8536 27.8391 21.1156C27.8391 19.8856 28.5771 19.2296 29.3151 19.2296C29.8891 19.2296 30.3811 19.6396 30.3811 20.4596C30.3811 20.9926 30.1761 21.5666 29.8891 22.1406C29.8891 22.1406 30.0121 22.1406 30.0531 22.1406C30.5041 22.1406 30.8321 21.9356 31.0371 21.6896C31.1191 21.6076 31.2011 21.5256 31.2831 21.4846C31.8571 20.7876 32.7181 20.2956 33.7021 20.2956C34.5631 20.2956 35.2601 20.6236 35.3421 21.3206C35.4651 22.1816 34.6861 22.3866 34.4401 22.3866C34.1941 22.3866 33.7841 22.3046 33.7841 22.0996C33.7431 21.8946 34.3171 21.9766 34.2761 21.4436C34.2351 21.1156 33.8661 20.9516 33.5381 20.9516C32.3901 20.9516 31.6111 22.4686 31.7341 23.7396C31.7751 24.2316 32.0211 24.7236 32.4721 24.7236C32.8411 24.7236 33.3741 24.1906 33.5791 23.4526C33.7021 22.9606 34.1941 22.5916 34.5631 22.5916C34.7271 22.5916 34.8911 22.6736 34.8911 22.8786C34.8911 23.0016 34.8501 23.2066 34.6861 24.0266C34.6041 24.3546 34.6041 24.6826 34.6041 24.8876C34.6861 25.3796 34.8911 25.7076 35.0961 25.9126C35.1781 25.9946 35.2191 26.0766 35.2191 26.1176C35.2191 26.2406 35.1371 26.3636 34.9731 26.3636C34.9321 26.3636 34.8501 26.3636 34.8091 26.3226C33.9071 25.9536 33.5381 25.3386 33.4561 24.8056C33.1281 25.2566 32.6771 25.4616 32.1851 25.4616C31.4061 25.4616 30.6271 24.7646 30.5041 23.8626C30.4631 23.4936 30.5041 23.0836 30.6271 22.7146C30.2991 22.9196 29.9711 23.0426 29.6431 23.0426C29.5201 23.0426 29.4381 23.0426 29.3561 23.0426C28.5771 24.1496 27.7571 24.9286 27.1421 25.2976C26.8961 25.4206 26.6501 25.5026 26.4861 25.5026C26.3631 25.5026 26.1991 25.4616 26.1171 25.3386C25.8711 25.1746 25.7481 24.7646 25.7071 24.2726ZM28.4951 20.5826C28.4951 21.0746 28.7411 21.5666 29.0281 21.8946C29.1511 21.5666 29.2331 21.2386 29.2331 20.9106C29.2331 20.2956 28.9871 20.0086 28.8231 20.0086C28.5771 20.0086 28.4951 20.3366 28.4951 20.5826Z" fill="white"/>
</svg>
