<svg width="93" height="39" viewBox="0 0 93 39" fill="none" xmlns="http://www.w3.org/2000/svg">
<path d="M80.0032 17.3953C78.4489 17.75 74.3439 17.9471 74.3439 17.9471L73.8391 19.5499C73.8391 19.5499 75.8716 19.3791 77.3595 19.5236C77.3595 19.5236 77.8378 19.4842 77.8909 20.0492C77.9175 20.6272 77.851 21.2316 77.851 21.2316C77.851 21.2316 77.8112 21.5863 77.3196 21.6783C76.7484 21.7702 72.8958 21.941 72.8958 21.941L72.2715 24.0169C72.2715 24.0169 72.0456 24.4898 72.5637 24.3584C73.042 24.2271 77.0805 23.4651 77.6119 23.5702C78.1699 23.7015 78.8075 24.4635 78.6215 25.1467C78.409 25.9744 74.3705 28.5232 71.9261 28.3524C71.9261 28.3524 70.6374 28.4312 69.5614 26.7102C68.5252 25.0679 69.9201 21.9805 69.9201 21.9805C69.9201 21.9805 69.2957 20.5353 69.7607 20.0097C69.7607 20.0097 70.0263 19.7864 70.8234 19.7207L71.8198 17.6974C71.8198 17.6974 70.6906 17.7631 70.0263 16.9486C69.4153 16.1603 69.3621 15.8187 69.8404 15.6085C70.3452 15.3457 75.0214 14.518 78.2363 14.6231C78.2363 14.6231 79.3655 14.4918 80.3618 16.4231C80.3618 16.4231 80.8135 17.2113 80.0164 17.3953H80.0032ZM67.8875 25.173C67.489 26.1321 66.3863 27.1437 65.0579 26.5262C63.7028 25.8956 61.564 21.5863 61.564 21.5863C61.564 21.5863 60.7669 19.9835 60.6075 20.036C60.6075 20.036 60.4348 19.7207 60.3418 21.4812C60.209 23.2286 60.3684 26.6313 59.6377 27.17C58.9735 27.6955 58.1764 27.4722 57.7247 26.8547C57.3527 26.2372 57.1933 24.7526 57.4059 22.1644C57.645 19.5762 58.2428 16.8172 59.0001 15.9632C59.7971 15.0961 60.4348 15.7267 60.6739 15.9632C60.6739 15.9632 61.6968 16.8829 63.4239 19.6025L63.7161 20.1017C63.7161 20.1017 65.2837 22.6899 65.4431 22.6768C65.4431 22.6768 65.576 22.8082 65.6823 22.703C65.8417 22.6636 65.7885 21.8228 65.7885 21.8228C65.7885 21.8228 65.4963 19.0244 64.035 14.2947C64.035 14.2947 63.8224 13.6903 63.9685 13.1123C64.1014 12.5867 64.6726 12.8495 64.6726 12.8495C64.6726 12.8495 66.8779 13.9005 67.9539 17.4478C69.0167 20.9951 68.2993 24.2139 67.9008 25.173H67.8875ZM57.0738 16.0683C56.8612 16.4362 56.7682 16.9486 55.8516 17.0931C55.8516 17.0931 46.9508 17.7106 46.5124 18.3281C46.5124 18.3281 46.2202 18.6959 46.6984 18.7879C47.2032 18.893 49.2225 19.1558 50.179 19.2083C51.2152 19.2083 54.6958 19.2346 55.9711 20.7849C55.9711 20.7849 56.7018 21.5206 56.6752 23.1892C56.6487 24.8971 56.3431 25.5015 55.6656 26.1189C54.9615 26.697 48.9303 29.3772 45.0378 25.2781C45.0378 25.2781 43.2577 23.3074 45.6622 21.8097C45.6622 21.8097 47.3892 20.7586 51.813 21.9805C51.813 21.9805 53.1415 22.4534 53.0884 22.9395C53.0087 23.4651 51.9857 23.9906 50.4978 23.9643C49.0631 23.9249 48.0003 23.2417 48.2129 23.36C48.4121 23.4256 46.6586 22.5191 46.1139 23.1366C45.5825 23.7147 45.7154 24.0563 46.2467 24.411C47.5752 25.173 52.7961 24.8971 54.3504 23.176C54.3504 23.176 54.9748 22.4797 54.0316 21.9148C53.1017 21.3892 50.3916 21.0608 49.3421 21.0214C48.3457 20.9688 44.6127 21.0214 44.0548 20.0623C44.0548 20.0623 43.5234 19.3791 44.1079 17.5135C44.719 15.5428 49.0631 14.7808 50.9495 14.6231C50.9495 14.6231 56.1306 14.4129 57.1003 15.464C57.1003 15.464 57.2332 15.7005 57.0738 16.0552V16.0683ZM42.3809 27.6167C41.7565 28.0765 40.428 27.8794 40.0428 27.3539C39.6708 26.8941 39.538 25.081 39.6044 22.2301C39.6974 19.3134 39.7372 15.7399 40.4015 15.1618C41.0657 14.5969 41.4643 15.0961 41.7299 15.4771C41.9956 15.8713 42.341 16.3048 42.3942 17.2113C42.4739 18.131 42.6997 22.8607 42.6997 22.8607C42.6997 22.8607 42.992 27.17 42.3942 27.6167H42.3809ZM43.7094 12.2452C41.8761 12.8626 40.6273 12.6656 39.5645 12.2057C39.0996 13.0334 38.8206 13.2831 38.4752 13.3356C37.9438 13.3882 37.4788 12.5473 37.4124 12.2846C37.3061 12.0875 37.0537 11.7328 37.3593 10.9313C36.3231 10.0117 36.2434 8.7767 36.4294 7.94901C36.6685 6.97679 38.4221 3.32441 43.7359 2.89085C43.7359 2.89085 46.3397 2.70692 46.7914 4.07328H46.8711C46.8711 4.07328 49.3952 4.07328 49.3421 6.30675C49.3421 8.54022 46.5523 11.3255 43.7094 12.2846V12.2452ZM46.074 5.88633C44.4002 6.14909 41.8229 8.35628 40.5875 10.1825C42.4872 10.5241 45.8083 10.3927 47.2962 7.42348C47.2962 7.42348 48.0003 5.55788 46.074 5.88633ZM38.7276 7.33152C38.1962 8.18549 38.1697 8.69788 38.4221 9.03946C39.0464 8.1198 40.1491 6.67461 41.8097 5.54474C40.5343 5.67612 39.4583 6.20164 38.7276 7.33152ZM83.9886 27.5247C82.7664 30.4939 81.7302 33.5025 81.1324 38.0089C81.1324 38.0089 80.9995 38.8891 80.2689 38.6001C79.5382 38.3373 78.3426 37.1549 78.0769 35.4864C77.8112 33.3055 78.7943 29.6268 80.8002 25.3964C80.2157 24.4767 79.8039 23.1103 80.136 21.1922C80.136 21.1922 80.6674 17.6449 84.2543 14.4392C84.2543 14.4392 84.6794 14.0845 84.9185 14.2027C85.2108 14.3341 85.0912 15.464 84.8521 16.0421C84.6395 16.5939 83.0453 19.3266 83.0453 19.3266C83.0453 19.3266 82.049 21.1922 82.328 22.6505C84.2144 19.7864 88.5054 13.9794 91.1623 15.8187C92.8495 17.0011 92.8495 20.8112 91.5874 23.0184C90.5911 24.7657 87.7747 28.3787 84.0151 27.5379L83.9886 27.5247ZM89.5416 18.604C88.5585 19.655 86.8049 21.652 85.4233 24.3584C86.8846 24.2008 88.3061 23.3994 88.7445 22.9921C89.4486 22.3746 91.0693 20.7061 90.8169 18.4989C90.8169 18.4989 90.6575 17.3427 89.5416 18.604ZM30.0261 29.075C25.3233 30.4939 20.8863 29.837 18.4684 29.2064C18.402 30.1786 18.2957 30.5859 18.1363 30.7435C17.9503 30.9538 16.4093 31.8209 15.5591 30.5859C15.1871 29.9947 15.0011 28.9305 14.8949 27.9583C9.44813 25.5146 6.92404 21.9148 6.84433 21.7834C6.71149 21.652 5.47601 20.3776 6.71149 18.801C7.86725 17.3821 11.6932 15.9501 15.1207 15.3851C15.2535 12.4948 15.5724 10.2613 15.9842 9.27595C16.4757 8.09352 17.1001 9.14457 17.6581 9.93285C18.1098 10.5241 18.3887 13.0597 18.4153 15.083C20.6471 14.9779 22.0022 15.1355 24.4864 15.6085C27.7544 16.1603 29.9331 17.8157 29.7604 19.6813C29.601 21.5206 27.9006 22.2826 27.2363 22.3352C26.5721 22.3877 25.5093 21.9016 25.5093 21.9016C24.7654 21.56 25.4429 21.2447 26.3064 20.8769C27.2629 20.417 27.0504 19.9572 27.0504 19.9572C26.705 18.9061 22.4671 18.2098 18.2559 18.2098C18.2559 20.509 18.3489 24.319 18.4153 26.5394C21.3645 27.0912 23.5698 26.9729 23.5698 26.9729C23.5698 26.9729 34.3304 26.6707 34.6359 19.8784C34.968 13.0728 23.8753 6.55637 15.7052 4.50683C7.54842 2.39161 2.92535 3.88934 2.52681 4.08642C2.08841 4.29662 2.48695 4.37545 2.48695 4.37545C2.48695 4.37545 2.92535 4.44114 3.72243 4.7039C4.51951 4.96667 3.88185 5.36081 3.88185 5.36081C2.48695 5.83378 0.932643 5.55788 0.627095 4.92725C0.321547 4.30976 0.826365 3.74483 1.42418 2.91713C1.98213 2.06315 2.6198 2.08943 2.6198 2.08943C12.7162 -1.39216 25.0444 4.84842 25.0444 4.84842C36.5755 10.6029 38.5416 17.369 38.3291 19.9966C38.1431 22.5848 37.1334 26.9598 30.0261 29.0881V29.075ZM7.84069 19.6813C6.6982 20.2068 7.49528 21.0477 7.49528 21.0477C9.6474 23.3205 12.2778 24.7526 14.8019 25.646C15.0941 21.7046 15.0676 20.2988 15.0676 18.3149C11.1619 18.5777 8.90346 19.2083 7.84069 19.6813Z" fill="black"/>
</svg>
