<svg xmlns="http://www.w3.org/2000/svg" xmlns:xlink="http://www.w3.org/1999/xlink" viewBox="0 0 126 40"><path d="M 17.16 10.004 L 26.157 11.019 C 26.347 11.041 26.519 11.14 26.633 11.293 L 33.33 20.313 C 33.521 20.571 33.509 20.926 33.301 21.171 L 17.345 39.879 C 17.221 40.024 17.004 40.041 16.859 39.918 C 16.845 39.906 16.832 39.893 16.82 39.879 L 0.864 21.171 C 0.656 20.926 0.644 20.571 0.835 20.313 L 7.532 11.293 C 7.646 11.14 7.818 11.041 8.008 11.019 L 17.005 10.004 C 17.056 9.999 17.108 9.999 17.16 10.004 Z M 19.028 11.95 C 18.975 11.897 18.891 11.893 18.832 11.939 C 18.775 11.985 18.762 12.066 18.798 12.127 L 18.81 12.145 L 23.884 18.458 C 23.933 18.519 23.959 18.595 23.959 18.674 C 23.959 18.854 23.82 19.003 23.643 19.017 L 23.615 19.018 L 10.55 19.018 C 10.472 19.018 10.396 18.991 10.334 18.942 C 10.194 18.83 10.165 18.63 10.263 18.483 L 10.282 18.458 L 15.355 12.145 C 15.402 12.087 15.397 12.002 15.344 11.95 C 15.292 11.898 15.211 11.894 15.154 11.936 L 15.138 11.95 L 8.264 18.858 C 8.209 18.913 8.133 18.943 8.056 18.939 C 7.912 18.932 7.8 18.817 7.793 18.677 L 7.793 18.651 L 8.03 13.647 C 8.033 13.58 7.988 13.521 7.923 13.506 C 7.855 13.491 7.787 13.529 7.763 13.592 L 7.758 13.61 L 6.456 19.369 C 6.411 19.566 6.263 19.722 6.071 19.777 L 6.034 19.786 L 2.809 20.481 C 2.746 20.494 2.701 20.551 2.701 20.616 C 2.701 20.685 2.752 20.743 2.82 20.752 L 2.838 20.753 L 6.055 20.753 C 6.242 20.753 6.416 20.848 6.517 21.003 L 6.536 21.035 L 14.252 34.794 C 14.306 34.888 14.423 34.926 14.521 34.879 C 14.617 34.834 14.662 34.724 14.629 34.625 L 14.62 34.604 L 8.382 21.343 C 8.356 21.288 8.343 21.228 8.343 21.167 C 8.343 20.948 8.512 20.77 8.727 20.754 L 8.756 20.753 L 25.409 20.753 C 25.47 20.753 25.53 20.767 25.585 20.793 C 25.783 20.886 25.872 21.115 25.795 21.316 L 25.783 21.343 L 19.545 34.604 C 19.499 34.703 19.536 34.82 19.631 34.873 C 19.724 34.925 19.84 34.897 19.9 34.813 L 19.913 34.794 L 27.629 21.035 C 27.72 20.872 27.888 20.767 28.073 20.755 L 28.11 20.753 L 31.326 20.753 C 31.391 20.753 31.448 20.708 31.461 20.645 C 31.476 20.576 31.437 20.509 31.374 20.486 L 31.356 20.481 L 28.131 19.786 C 27.933 19.744 27.776 19.597 27.719 19.406 L 27.709 19.369 L 26.407 13.61 C 26.392 13.545 26.333 13.5 26.266 13.503 C 26.196 13.506 26.141 13.561 26.135 13.628 L 26.135 13.647 L 26.372 18.651 C 26.375 18.728 26.346 18.804 26.291 18.859 C 26.19 18.96 26.03 18.966 25.922 18.877 L 25.901 18.858 Z M 50.816 14.773 C 53.581 14.773 55.816 15.524 57.778 16.512 L 57.999 16.625 C 58.035 16.644 58.072 16.663 58.108 16.683 L 58.326 16.798 C 58.362 16.818 58.398 16.837 58.434 16.857 L 58.648 16.975 C 58.684 16.995 58.719 17.014 58.755 17.034 L 58.966 17.154 C 59.002 17.174 59.037 17.195 59.071 17.215 L 59.28 17.336 L 58.024 19.982 C 55.785 18.673 53.437 17.718 50.68 17.718 C 47.895 17.718 46.639 18.7 46.639 20.145 C 46.639 21.16 47.395 21.798 48.799 22.237 L 48.941 22.28 L 49.088 22.322 L 49.24 22.363 L 49.395 22.402 C 49.421 22.409 49.448 22.415 49.474 22.422 L 49.636 22.459 C 49.663 22.466 49.691 22.472 49.718 22.478 L 49.886 22.514 L 50.059 22.549 C 50.088 22.555 50.117 22.561 50.146 22.566 L 50.325 22.6 L 53.983 23.255 C 54.132 23.282 54.278 23.31 54.421 23.34 L 54.634 23.386 C 57.941 24.116 59.799 25.572 59.799 28.545 C 59.799 32.445 56.55 34.627 51.69 34.627 C 48.562 34.627 46.046 33.672 44.209 32.55 L 44.047 32.449 C 43.993 32.415 43.94 32.381 43.888 32.347 L 43.732 32.245 C 43.63 32.177 43.53 32.108 43.433 32.039 L 43.288 31.935 C 43.241 31.901 43.194 31.866 43.148 31.832 L 43.011 31.728 L 42.877 31.624 L 42.748 31.521 L 42.622 31.418 L 42.5 31.316 C 42.48 31.298 42.46 31.281 42.44 31.264 L 42.324 31.163 L 42.211 31.062 C 42.193 31.046 42.174 31.029 42.156 31.012 L 42.049 30.913 L 41.997 30.864 L 43.799 28.382 L 43.879 28.453 L 44.041 28.594 C 44.068 28.617 44.096 28.64 44.123 28.663 L 44.289 28.802 C 44.317 28.825 44.345 28.848 44.373 28.871 L 44.542 29.007 L 44.714 29.141 C 46.592 30.585 48.915 31.682 51.717 31.682 C 51.794 31.682 51.871 31.681 51.947 31.68 L 52.098 31.675 C 52.123 31.675 52.148 31.674 52.173 31.673 L 52.323 31.665 L 52.471 31.656 C 52.52 31.653 52.569 31.649 52.617 31.645 L 52.762 31.631 L 52.905 31.615 C 53.047 31.599 53.186 31.579 53.323 31.555 L 53.458 31.531 C 53.503 31.522 53.547 31.513 53.591 31.504 L 53.723 31.475 C 53.766 31.465 53.809 31.455 53.852 31.444 L 53.978 31.411 C 54.02 31.399 54.061 31.387 54.102 31.375 L 54.224 31.337 C 55.509 30.918 56.359 30.1 56.359 28.791 C 56.359 27.744 55.739 27.115 54.381 26.682 L 54.238 26.638 C 54.165 26.617 54.09 26.595 54.013 26.575 L 53.857 26.534 L 53.695 26.494 L 53.528 26.456 C 53.5 26.449 53.471 26.443 53.442 26.437 L 53.355 26.418 L 49.533 25.709 C 49.412 25.685 49.292 25.661 49.174 25.636 L 48.94 25.585 C 48.902 25.577 48.863 25.568 48.825 25.559 L 48.598 25.506 L 48.375 25.451 C 45.066 24.608 43.253 23.145 43.253 20.445 C 43.253 17.009 46.093 14.773 50.816 14.773 Z M 81.222 20.286 C 85.06 20.286 87.48 22.959 87.528 26.956 L 87.529 27.11 L 87.527 27.282 L 87.523 27.441 L 87.513 27.638 L 87.506 27.752 L 87.502 27.813 L 77.7 27.813 C 77.864 30.459 79.256 32.013 81.386 32.013 C 82.916 32.013 83.945 31.275 84.342 30.109 L 84.362 30.05 L 87.42 30.05 C 86.901 32.613 84.771 34.577 81.331 34.577 C 77.263 34.577 74.587 31.741 74.587 27.459 C 74.587 23.177 77.263 20.286 81.222 20.286 Z M 104.85 20.282 C 108.337 20.282 110.673 22.447 111.011 25.454 L 111.02 25.545 L 107.88 25.545 C 107.689 24.045 106.652 22.873 104.822 22.873 C 102.775 22.873 101.464 24.536 101.464 27.427 C 101.464 30.373 102.829 31.982 104.877 31.982 C 106.709 31.982 107.611 30.734 107.87 29.18 L 107.88 29.118 L 110.993 29.118 C 110.638 32.309 108.29 34.573 104.795 34.573 C 100.891 34.573 98.297 31.682 98.297 27.455 C 98.297 23.227 100.891 20.282 104.85 20.282 Z M 64.987 15.155 L 64.987 26.664 L 70.666 20.582 L 74.379 20.582 L 69.246 25.845 L 74.734 34.245 L 71.075 34.245 L 67.089 27.782 L 64.987 29.936 L 64.987 34.245 L 61.874 34.245 L 61.874 15.155 Z M 93.41 15.564 L 93.41 20.582 L 96.495 20.582 L 96.495 23.036 L 93.41 23.036 L 93.41 30.155 C 93.41 30.235 93.412 30.312 93.417 30.386 L 93.425 30.473 C 93.503 31.228 93.903 31.613 95.037 31.627 L 95.102 31.627 L 97.396 31.627 L 97.396 34.245 L 94.229 34.245 C 91.663 34.245 90.326 33.124 90.297 30.935 L 90.297 30.864 L 90.297 23.036 L 88.304 23.036 L 88.304 20.582 L 90.297 20.582 L 90.297 17.364 Z M 116.181 15.155 L 116.181 23.227 C 117.191 21.645 118.857 20.282 120.85 20.282 C 123.688 20.282 125.268 22.233 125.3 25.554 L 125.3 25.655 L 125.3 34.245 L 122.188 34.245 L 122.188 26.636 C 122.188 26.383 122.18 26.144 122.164 25.919 L 122.152 25.772 C 122.15 25.747 122.148 25.723 122.145 25.699 L 122.13 25.558 C 121.924 23.819 121.157 23.064 119.73 23.064 C 117.973 23.064 116.216 24.694 116.181 27.452 L 116.181 27.536 L 116.181 34.245 L 113.068 34.245 L 113.068 15.155 Z M 81.222 22.741 C 79.58 22.741 78.282 23.828 77.959 25.375 L 77.946 25.441 L 84.253 25.441 C 84.089 23.75 82.888 22.741 81.222 22.741 Z" fill="rgb(13,12,34)"></path></svg>