<svg xmlns="http://www.w3.org/2000/svg" xmlns:xlink="http://www.w3.org/1999/xlink" viewBox="0 0 104 28"><path d="M 8.417 4.406 C 7.2 4.406 6.848 4.945 6.848 6.136 L 6.848 8.11 L 10.094 8.11 L 9.768 11.3 L 6.85 11.3 L 6.85 20.98 L 2.955 20.98 L 2.955 11.3 L 0.332 11.3 L 0.332 8.11 L 2.955 8.11 L 2.955 6.19 C 2.955 2.972 4.253 1.273 7.872 1.273 C 8.631 1.271 9.389 1.316 10.142 1.408 L 10.142 4.41 Z" fill="rgb(13,12,34)"></path><path d="M 10.363 14.139 C 10.363 10.543 12.067 7.835 15.636 7.835 C 17.582 7.835 18.771 8.836 19.34 10.079 L 19.34 8.11 L 23.07 8.11 L 23.07 20.98 L 19.34 20.98 L 19.34 19.033 C 18.799 20.277 17.582 21.251 15.636 21.251 C 12.067 21.251 10.363 18.546 10.363 14.947 Z M 14.256 15.005 C 14.256 16.924 14.959 18.195 16.77 18.195 C 18.367 18.195 19.177 17.032 19.177 15.194 L 19.177 13.902 C 19.177 12.064 18.367 10.901 16.77 10.901 C 14.959 10.901 14.256 12.172 14.256 14.091 Z" fill="rgb(13,12,34)"></path><path d="M 31.182 7.839 C 32.695 7.839 34.128 8.164 34.913 8.704 L 34.048 11.462 C 33.237 11.076 32.35 10.873 31.452 10.867 C 29.343 10.867 28.426 12.084 28.426 14.167 L 28.426 14.923 C 28.426 17.006 29.345 18.222 31.452 18.222 C 32.35 18.217 33.237 18.014 34.048 17.627 L 34.913 20.385 C 34.128 20.925 32.696 21.251 31.182 21.251 C 26.612 21.251 24.53 18.79 24.53 14.842 L 24.53 14.247 C 24.53 10.3 26.612 7.839 31.182 7.839 Z" fill="rgb(13,12,34)"></path><path d="M 35.426 15.036 L 35.426 13.902 C 35.426 10.252 37.507 7.85 41.754 7.85 C 45.755 7.85 47.513 10.283 47.513 13.853 L 47.513 15.908 L 39.318 15.908 C 39.4 17.665 40.184 18.449 42.344 18.449 C 43.805 18.449 45.345 18.152 46.481 17.665 L 47.194 20.332 C 46.166 20.874 44.057 21.278 42.192 21.278 C 37.264 21.277 35.426 18.819 35.426 15.036 Z M 39.319 13.36 L 44.024 13.36 L 44.024 13.036 C 44.024 11.63 43.457 10.514 41.755 10.514 C 39.996 10.515 39.319 11.625 39.319 13.355 Z" fill="rgb(13,12,34)"></path><path d="M 61.945 14.951 C 61.945 18.546 60.215 21.255 56.65 21.255 C 54.703 21.255 53.352 20.281 52.811 19.037 L 52.811 20.983 L 49.134 20.983 L 49.134 1.647 L 53.028 1.294 L 53.028 9.893 C 53.595 8.758 54.839 7.838 56.651 7.838 C 60.22 7.838 61.946 10.542 61.946 14.141 Z M 58.052 14.058 C 58.052 12.246 57.349 10.895 55.483 10.895 C 53.887 10.895 53.023 12.03 53.023 13.869 L 53.023 15.221 C 53.023 17.059 53.887 18.195 55.483 18.195 C 57.349 18.195 58.052 16.843 58.052 15.031 Z" fill="rgb(13,12,34)"></path><path d="M 63.247 14.869 L 63.247 14.221 C 63.247 10.515 65.356 7.839 69.656 7.839 C 73.955 7.839 76.065 10.515 76.065 14.221 L 76.065 14.869 C 76.065 18.573 73.956 21.251 69.657 21.251 C 65.358 21.251 63.247 18.573 63.247 14.869 Z M 72.171 13.95 C 72.171 12.246 71.467 10.895 69.649 10.895 C 67.831 10.895 67.134 12.246 67.134 13.95 L 67.134 15.14 C 67.134 16.843 67.837 18.195 69.649 18.195 C 71.461 18.195 72.171 16.843 72.171 15.14 Z" fill="rgb(13,12,34)"></path><path d="M 77.36 14.869 L 77.36 14.221 C 77.36 10.515 79.469 7.839 83.768 7.839 C 88.067 7.839 90.177 10.515 90.177 14.221 L 90.177 14.869 C 90.177 18.573 88.067 21.251 83.768 21.251 C 79.469 21.251 77.36 18.573 77.36 14.869 Z M 86.283 13.95 C 86.283 12.246 85.58 10.895 83.768 10.895 C 81.957 10.895 81.254 12.246 81.254 13.95 L 81.254 15.14 C 81.254 16.843 81.957 18.195 83.768 18.195 C 85.58 18.195 86.283 16.843 86.283 15.14 Z" fill="rgb(13,12,34)"></path><path d="M 95.53 14.247 L 99.369 8.11 L 103.506 8.11 L 99.478 14.464 L 103.668 20.98 L 99.532 20.98 L 95.53 14.676 L 95.53 20.98 L 91.636 20.98 L 91.636 1.647 L 95.53 1.294 Z" fill="rgb(13,12,34)"></path></svg>