<svg width="141" height="17" viewBox="0 0 141 17" fill="none" xmlns="http://www.w3.org/2000/svg">
<path d="M12.1061 1.2908V3.24111C12.1061 3.36827 12.0213 3.45309 11.8941 3.45309H3.52061V7.43854H10.4315C10.5586 7.43854 10.6434 7.52323 10.6434 7.6504V9.60083C10.6434 9.728 10.5586 9.8127 10.4315 9.8127H3.52061V15.706C3.52061 15.8333 3.43591 15.918 3.30863 15.918H1.20991C1.08275 15.918 0.998047 15.8333 0.998047 15.706V1.2908C0.998047 1.16363 1.08275 1.07881 1.20991 1.07881H11.8941C12.0213 1.07881 12.1061 1.16363 12.1061 1.2908Z" fill="#61778C"/>
<path d="M24.7494 9.64307C23.9758 7.502 23.1172 5.36094 22.2373 3.41063H21.7393C20.8595 5.36094 19.9903 7.502 19.2165 9.64307H24.7494ZM29.1906 15.918H26.8799C26.7528 15.918 26.6679 15.8543 26.6362 15.7271C26.3287 14.5082 25.9579 13.2257 25.5338 11.9325H18.4427C18.0189 13.2257 17.6479 14.5082 17.3511 15.7271C17.3193 15.8543 17.2344 15.918 17.1072 15.918H14.8815C14.7331 15.918 14.6482 15.8333 14.6906 15.6848C16.0261 10.9575 18.0612 5.74244 20.1175 1.35438C20.2129 1.15301 20.3296 1.07881 20.5309 1.07881H23.5411C23.7424 1.07881 23.8591 1.15301 23.9545 1.35438C26.032 5.73194 28.0353 10.9575 29.3814 15.6848C29.4238 15.8333 29.339 15.918 29.1906 15.918Z" fill="#61778C"/>
<path d="M32.9844 8.6274C32.9844 4.02712 36.0157 0.805021 40.3404 0.805021H40.6582C43.3718 0.805021 45.4705 2.18285 46.5834 4.17552C46.6576 4.3028 46.6363 4.40873 46.5092 4.47243L44.6438 5.39445C44.5165 5.45803 44.3574 5.45803 44.2727 5.29913C43.4883 3.94242 42.3119 3.22165 40.5735 3.22165H40.2555C37.5316 3.22165 35.6553 5.38395 35.6553 8.52146C35.6553 11.6695 37.4997 13.7787 40.2555 13.7787H40.5735C42.3543 13.7787 43.3929 13.1745 44.188 12.2523C44.2939 12.1357 44.4106 12.1146 44.5377 12.1781L46.4562 13.1109C46.5304 13.1532 46.5621 13.2062 46.5621 13.2593C46.5621 13.3122 46.5409 13.3547 46.4987 13.4182C45.3221 15.1354 43.2023 16.1953 40.616 16.1953H40.298C35.8993 16.1953 32.9844 13.1745 32.9844 8.6274Z" fill="#61778C"/>
<path d="M63.4713 13.7557V15.706C63.4713 15.8333 63.3864 15.918 63.2592 15.918H52.1298C52.0027 15.918 51.918 15.8333 51.918 15.706V1.2908C51.918 1.16363 52.0027 1.07881 52.1298 1.07881H63.0685C63.1958 1.07881 63.2805 1.16363 63.2805 1.2908V3.24111C63.2805 3.36827 63.1958 3.45309 63.0685 3.45309H54.4405V7.31113H61.4573C61.5845 7.31113 61.6694 7.39607 61.6694 7.52323V9.45231C61.6694 9.57948 61.5845 9.6643 61.4573 9.6643H54.4405V13.5437H63.2592C63.3864 13.5437 63.4713 13.6285 63.4713 13.7557Z" fill="#61778C"/>
<path d="M80.0451 11.6251C80.0451 10.2473 79.1335 9.62183 77.1302 9.62183H72.1378V13.6073H77.1302C79.1653 13.6073 80.0451 13.0137 80.0451 11.6251ZM76.42 3.38951H72.1378V7.37483H76.42C78.3385 7.37483 79.2183 6.74939 79.2183 5.38217C79.2183 4.01472 78.3385 3.38951 76.42 3.38951ZM82.6314 11.8478C82.6314 14.4446 80.6386 15.918 77.1195 15.918H69.8271C69.6999 15.918 69.6152 15.8333 69.6152 15.706V1.2908C69.6152 1.16363 69.6999 1.07881 69.8271 1.07881H76.473C79.8966 1.07881 81.762 2.43553 81.762 4.91574C81.762 6.54802 80.9354 7.61867 79.2606 8.11672C81.6137 8.61488 82.6314 10.0247 82.6314 11.8478Z" fill="#61778C"/>
<path d="M95.0219 13.7787C98.0634 13.7787 99.9826 11.6906 99.9826 8.50022C99.9826 5.30963 98.0634 3.22165 95.0219 3.22165H94.7034C91.6617 3.22165 89.7432 5.30963 89.7432 8.50022C89.7432 11.6906 91.6617 13.7787 94.7034 13.7787H95.0219ZM87.0723 8.50022C87.0723 4.02711 90.0401 0.805021 94.7034 0.805021H95.0219C99.6851 0.805021 102.653 4.02711 102.653 8.50022C102.653 12.9731 99.6851 16.1953 95.0219 16.1953H94.7034C90.0401 16.1953 87.0723 12.9731 87.0723 8.50022Z" fill="#61778C"/>
<path d="M114.909 13.7787C117.951 13.7787 119.869 11.6906 119.869 8.50022C119.869 5.30963 117.951 3.22165 114.909 3.22165H114.591C111.549 3.22165 109.631 5.30963 109.631 8.50022C109.631 11.6906 111.549 13.7787 114.591 13.7787H114.909ZM106.959 8.50022C106.959 4.02711 109.927 0.805021 114.591 0.805021H114.909C119.573 0.805021 122.541 4.02711 122.541 8.50022C122.541 12.9731 119.573 16.1953 114.909 16.1953H114.591C109.927 16.1953 106.959 12.9731 106.959 8.50022Z" fill="#61778C"/>
<path d="M140.823 15.918H138.088C137.909 15.918 137.834 15.8755 137.717 15.7377C135.799 13.4801 133.531 11.2331 131.602 9.57948H130.372V15.706C130.372 15.8333 130.287 15.918 130.16 15.918H128.061C127.934 15.918 127.85 15.8333 127.85 15.706V1.2908C127.85 1.16363 127.934 1.07881 128.061 1.07881H130.16C130.287 1.07881 130.372 1.16363 130.372 1.2908V7.14173H131.623C133.69 5.27612 135.597 3.26234 137.156 1.23771C137.261 1.09993 137.346 1.07881 137.473 1.07881H140.06C140.187 1.07881 140.251 1.14239 140.251 1.22721C140.251 1.26956 140.229 1.32253 140.177 1.38611C137.898 4.19497 135.639 6.49505 133.552 8.27573C136.181 10.5015 138.672 12.9818 140.94 15.6529C141.056 15.7907 140.993 15.918 140.823 15.918Z" fill="#61778C"/>
</svg>
