<svg xmlns="http://www.w3.org/2000/svg" width="22" height="22" viewBox="0 0 20 20" fill="none"><path d="M13.3089 17.0834C13.8405 17.0834 14.3323 16.8021 14.6018 16.3439L17.8861 10.7606C18.1622 10.2912 18.1622 9.70898 17.8861 9.23957L14.6018 3.65623C14.3323 3.19807 13.8405 2.91675 13.3089 2.91675H6.6914C6.15985 2.91675 5.66801 3.19806 5.3985 3.65621L2.11413 9.23954C1.83799 9.70897 1.83799 10.2912 2.11413 10.7606L5.3985 16.344C5.66801 16.8021 6.15985 17.0834 6.6914 17.0834H13.3089Z" stroke="currentColor" stroke-width="1.5" stroke-linejoin="round"></path><path d="M10.0001 12.0834C11.1507 12.0834 12.0834 11.1507 12.0834 10.0001C12.0834 8.84949 11.1507 7.91675 10.0001 7.91675C8.84949 7.91675 7.91675 8.84949 7.91675 10.0001C7.91675 11.1507 8.84949 12.0834 10.0001 12.0834Z" stroke="currentColor" stroke-width="1.5" stroke-linejoin="round"></path></svg>