<svg xmlns="http://www.w3.org/2000/svg" width="18" height="18" viewBox="0 0 20 20" fill="none"><g clip-path="url(#clip0_29998_1193)"><rect x="0.833252" y="0.833252" width="11.6667" height="11.6667" rx="3" stroke="currentColor" stroke-width="1.5"></rect><path d="M15.2499 8.33325V8.33325C16.1022 8.33325 16.5283 8.33325 16.8796 8.41923C17.9663 8.68512 18.8147 9.53355 19.0806 10.6202C19.1666 10.9715 19.1666 11.3977 19.1666 12.2499V14.3666C19.1666 16.0467 19.1666 16.8868 18.8396 17.5286C18.552 18.093 18.093 18.552 17.5286 18.8396C16.8868 19.1666 16.0467 19.1666 14.3666 19.1666H10.4166C9.26599 19.1666 8.33325 18.2338 8.33325 17.0833V17.0833L8.33325 15.8333" stroke="currentColor" stroke-width="1.5" stroke-linecap="round"></path><path d="M15.6911 11.6667C15.6911 11.6667 15.2547 13.6719 14.1635 14.7858C13.5846 15.3768 12.7643 15.8911 11.6667 16.28M16.057 16.28C16.057 16.28 14.571 15.7581 13.9838 15.2049C13.5433 14.7899 13.1372 14.2721 12.8616 13.8913" stroke="currentColor" stroke-width="1.2" stroke-linecap="round" stroke-linejoin="round"></path><path d="M9.58333 9.58333L8.75 7.96296M8.75 7.96296L6.66667 3.75L4.58333 7.96296M8.75 7.96296H4.58333M3.75 9.58333L4.58333 7.96296" stroke="currentColor" stroke-width="1.2" stroke-linecap="round" stroke-linejoin="round"></path></g><defs><clipPath id="clip0_29998_1193"><rect width="20" height="20" fill="white"></rect></clipPath></defs></svg>