<svg width="122" height="26" viewBox="0 0 122 26" fill="none" xmlns="http://www.w3.org/2000/svg" id="svg1030430524_6138">
<path d="M121.893 11.7624V9.62065H119.233V6.29098L119.144 6.31855L116.645 7.0829L116.596 7.09786V9.62077H112.653V8.21529C112.653 7.56086 112.799 7.06004 113.088 6.72605C113.374 6.39606 113.784 6.2283 114.306 6.2283C114.682 6.2283 115.071 6.31678 115.462 6.49126L115.56 6.53508V4.27948L115.514 4.26252C115.149 4.13128 114.653 4.06519 114.037 4.06519C113.261 4.06519 112.556 4.23401 111.942 4.56859C111.327 4.90364 110.843 5.38195 110.504 5.99009C110.166 6.59752 109.995 7.29908 109.995 8.07545V9.62065H108.143V11.7624H109.995V20.7854H112.653V11.7624H116.596V17.4964C116.596 19.8579 117.71 21.0546 119.907 21.0546C120.268 21.0546 120.648 21.0123 121.036 20.9295C121.431 20.8444 121.7 20.7595 121.858 20.6688L121.893 20.6481V18.4865L121.785 18.558C121.64 18.6541 121.461 18.7327 121.25 18.7911C121.039 18.8506 120.862 18.8804 120.725 18.8804C120.21 18.8804 119.83 18.7418 119.593 18.4681C119.354 18.1919 119.233 17.709 119.233 17.0335V11.7624H121.893ZM102.205 18.8808C101.24 18.8808 100.48 18.5608 99.9434 17.9305C99.404 17.2971 99.1307 16.3939 99.1307 15.2465C99.1307 14.0626 99.404 13.136 99.9437 12.4913C100.48 11.8509 101.234 11.5259 102.184 11.5259C103.106 11.5259 103.839 11.8363 104.365 12.449C104.893 13.065 105.161 13.9841 105.161 15.1818C105.161 16.3942 104.909 17.3255 104.412 17.9484C103.918 18.5667 103.176 18.8808 102.205 18.8808ZM102.324 9.35169C100.483 9.35169 99.0203 9.89115 97.9777 10.9551C96.9357 12.0192 96.4075 13.4917 96.4075 15.3321C96.4075 17.0802 96.9231 18.4862 97.9403 19.5106C98.9575 20.5353 100.342 21.0544 102.054 21.0544C103.839 21.0544 105.272 20.5074 106.314 19.4287C107.356 18.3512 107.884 16.8926 107.884 15.0952C107.884 13.3198 107.389 11.9032 106.411 10.8857C105.433 9.8677 104.058 9.35169 102.324 9.35169ZM92.1209 9.35169C90.8686 9.35169 89.8327 9.67202 89.0414 10.3036C88.2452 10.939 87.8414 11.7722 87.8414 12.7806C87.8414 13.3047 87.9285 13.7703 88.1001 14.1652C88.2727 14.5614 88.5397 14.9102 88.8946 15.203C89.2467 15.4934 89.7903 15.7976 90.5106 16.1071C91.1161 16.3562 91.5677 16.567 91.8546 16.7331C92.135 16.8959 92.3339 17.0596 92.4463 17.219C92.5555 17.3749 92.6109 17.5884 92.6109 17.8518C92.6109 18.6019 92.0492 18.9669 90.8934 18.9669C90.4647 18.9669 89.9756 18.8774 89.4399 18.7009C88.9081 18.5271 88.4061 18.2725 87.9515 17.9462L87.8411 17.867V20.4267L87.8817 20.4455C88.2578 20.6192 88.7321 20.7656 89.2911 20.8809C89.8491 20.9962 90.356 21.0549 90.7964 21.0549C92.1553 21.0549 93.2497 20.733 94.0482 20.0977C94.8518 19.4579 95.2591 18.605 95.2591 17.5618C95.2591 16.8092 95.0398 16.1638 94.6077 15.6434C94.1785 15.1271 93.4336 14.6532 92.3946 14.2342C91.5669 13.902 91.0366 13.6262 90.8178 13.4145C90.607 13.21 90.4999 12.9208 90.4999 12.5545C90.4999 12.2298 90.6321 11.9697 90.9034 11.759C91.1768 11.5473 91.5575 11.4396 92.0348 11.4396C92.4778 11.4396 92.931 11.5096 93.3818 11.6468C93.8321 11.7839 94.2277 11.9676 94.558 12.1922L94.6666 12.2664V9.83837L94.6249 9.82046C94.3202 9.68981 93.9185 9.57801 93.4305 9.48729C92.9448 9.39717 92.5042 9.35169 92.1209 9.35169ZM80.9105 18.8808C79.9457 18.8808 79.1847 18.5608 78.6486 17.9305C78.1091 17.2971 77.8362 16.3942 77.8362 15.2465C77.8362 14.0626 78.1094 13.136 78.6492 12.4913C79.1852 11.8509 79.9386 11.5259 80.8891 11.5259C81.8107 11.5259 82.5445 11.8363 83.0703 12.449C83.5987 13.065 83.8667 13.9841 83.8667 15.1818C83.8667 16.3942 83.6145 17.3255 83.1173 17.9484C82.6236 18.5667 81.8815 18.8808 80.9105 18.8808ZM81.029 9.35169C79.1875 9.35169 77.7251 9.89115 76.6831 10.9551C75.6412 12.0192 75.1125 13.4917 75.1125 15.3321C75.1125 17.0809 75.6286 18.4862 76.6457 19.5106C77.6629 20.5353 79.0471 21.0544 80.7597 21.0544C82.544 21.0544 83.9775 20.5074 85.0197 19.4287C86.0615 18.3512 86.5896 16.8926 86.5896 15.0952C86.5896 13.3198 86.0941 11.9032 85.1164 10.8857C84.1382 9.8677 82.7629 9.35169 81.029 9.35169ZM71.0768 11.5542V9.62065H68.4506V20.7852H71.0768V15.0741C71.0768 14.103 71.297 13.3052 71.7315 12.7026C72.1605 12.1072 72.7321 11.8054 73.43 11.8054C73.6665 11.8054 73.9321 11.8444 74.2197 11.9216C74.5043 11.9983 74.7105 12.0816 74.832 12.1692L74.9424 12.2492V9.60157L74.8999 9.58331C74.6553 9.4794 74.3093 9.42697 73.8715 9.42697C73.2116 9.42697 72.621 9.63903 72.1151 10.0566C71.6711 10.4235 71.3502 10.9267 71.1048 11.5542H71.0768ZM63.7475 9.35169C62.5426 9.35169 61.468 9.61005 60.5539 10.1193C59.6379 10.6298 58.9295 11.3586 58.4476 12.2853C57.9677 13.2097 57.7241 14.2896 57.7241 15.4939C57.7241 16.5487 57.9603 17.5168 58.4272 18.37C58.8943 19.2246 59.5555 19.8931 60.3924 20.3568C61.2281 20.8199 62.194 21.0547 63.2635 21.0547C64.5116 21.0547 65.5772 20.8052 66.4316 20.3131L66.4661 20.2933V17.8873L66.3557 17.9679C65.9687 18.2498 65.5362 18.4748 65.0709 18.6369C64.6067 18.7989 64.1835 18.8808 63.8124 18.8808C62.7819 18.8808 61.9547 18.5583 61.3542 17.9226C60.7524 17.2861 60.4473 16.3923 60.4473 15.2675C60.4473 14.1357 60.7655 13.2189 61.3926 12.5425C62.0178 11.868 62.8466 11.5259 63.8558 11.5259C64.719 11.5259 65.5601 11.8182 66.3559 12.3954L66.4661 12.4754V9.94027L66.4305 9.92024C66.131 9.7526 65.7226 9.61417 65.2155 9.5092C64.7106 9.40447 64.2167 9.35169 63.7475 9.35169ZM55.9153 9.62077H53.2891V20.7852H55.9153V9.62077ZM54.6291 4.86465C54.1968 4.86465 53.8199 5.01179 53.5101 5.30337C53.1991 5.59578 53.0414 5.96394 53.0414 6.39842C53.0414 6.82607 53.1972 7.18751 53.5053 7.47214C53.8114 7.75595 54.1895 7.8998 54.6292 7.8998C55.0688 7.8998 55.4483 7.75595 55.7581 7.47262C56.0698 7.18751 56.2279 6.82619 56.2279 6.39842C56.2279 5.97913 56.074 5.61475 55.7709 5.31515C55.468 5.01615 55.0837 4.86465 54.6291 4.86465ZM48.0765 8.79704V20.7852H50.7567V5.20641H47.0472L42.3322 16.7779L37.7565 5.20641H33.896V20.7851H36.4147V8.79586H36.5011L41.3329 20.7852H43.2336L47.99 8.79704H48.0765Z" fill="#0D0C22"></path>
<path d="M12.4615 12.3545H0.106934V0H12.4615V12.3545Z" fill="#0D0C22"></path>
<path d="M26.1024 12.3545H13.748V0H26.1024V12.3545Z" fill="#0D0C22"></path>
<path d="M12.4611 25.9999H0.106934V13.6455H12.4611V25.9999Z" fill="#0D0C22"></path>
<path d="M26.1024 25.9999H13.748V13.6455H26.1024V25.9999Z" fill="#0D0C22"></path>
</svg>