<svg width="130" height="37" viewBox="0 0 130 37" fill="none" xmlns="http://www.w3.org/2000/svg">
<path d="M24.8006 17.4987C25.0389 17.4987 25.2772 17.4987 25.5155 17.4987C25.6672 17.1737 25.6672 16.6971 25.5155 16.1555C25.3639 15.354 25.1256 14.8124 24.649 14.8773C24.1724 14.964 24.1724 15.5923 24.324 16.3938C24.389 16.8704 24.5623 17.2604 24.8006 17.4987Z" fill="black"/>
<path d="M20.5985 18.2135C20.9235 18.3652 21.1618 18.4518 21.2268 18.3652C21.3134 18.2785 21.2268 18.2135 21.1401 18.0402C20.9885 17.7153 20.5769 17.477 20.2736 17.3253C19.472 17.0003 18.6055 17.087 17.8906 17.6503C17.6523 17.8019 17.414 18.0402 17.5006 18.2135C17.5006 18.3002 17.5873 18.3002 17.6523 18.3002C17.8039 18.3002 18.5188 17.9752 19.3204 17.9102C19.797 17.8886 20.2736 18.0619 20.5985 18.2135Z" fill="black"/>
<path d="M19.8842 18.6046C19.4075 18.6913 19.1692 18.8429 19.0176 18.9945C18.866 19.1462 18.7793 19.2328 18.7793 19.3195V19.4062H18.866C18.9526 19.4062 19.1909 19.3195 19.1909 19.3195C19.8192 19.0812 20.2308 19.0812 20.6207 19.1679C20.859 19.1679 20.9457 19.2545 21.0107 19.1679C21.0107 19.1679 21.0107 19.0812 21.0107 19.0162C20.989 18.7779 20.5124 18.5396 19.8842 18.6046Z" fill="black"/>
<path d="M20.1217 19.1663C20.2734 18.8413 20.2734 18.1264 20.1217 17.5848C19.9701 16.7832 19.7318 16.3066 19.1685 16.3066C18.6919 16.3933 18.6919 17.0215 18.8436 17.8881C18.9302 18.4514 19.1685 18.7547 19.2335 18.993C19.6451 19.6429 19.8834 19.4696 20.1217 19.1663Z" fill="black"/>
<path d="M23.37 20.0341C23.695 20.1857 23.9983 20.1207 24.1716 19.8824C24.2583 19.6441 24.0849 19.3192 23.7817 19.1675C23.4567 19.0159 23.1534 19.0809 22.9801 19.3192C22.8068 19.5575 23.0451 19.8824 23.37 20.0341Z" fill="black"/>
<path d="M25.3418 18.3008C25.1035 18.3008 24.8652 18.5391 24.8652 18.929C24.8652 19.254 25.0169 19.5573 25.3418 19.5573C25.5801 19.5573 25.8184 19.319 25.8184 18.929C25.7534 18.6041 25.5801 18.3008 25.3418 18.3008Z" fill="black"/>
<path d="M8.55276 24.4744C8.46611 24.3877 8.40111 24.3877 8.31446 24.4744C8.2278 24.4744 8.16281 24.4744 8.07616 24.4744C7.92451 24.4744 7.7512 24.3877 7.68621 24.2361C7.62122 24.0844 7.59955 23.8461 7.68621 23.5212L7.77286 23.3695C8.01117 22.8929 8.33612 22.178 7.92451 21.4631C7.59955 20.8998 7.2096 20.5966 6.64635 20.5099C6.08309 20.4232 5.54149 20.6615 5.21653 21.0732C4.65327 21.7014 4.58828 22.503 4.65327 22.8063C4.65327 22.8929 4.73993 22.9579 4.80492 22.9579C4.89158 22.9579 5.04322 22.8713 5.12988 22.633V22.5463C5.12988 22.3946 5.21653 22.2213 5.36818 21.983C5.51983 21.7447 5.75813 21.5931 5.99643 21.5931C6.23473 21.5064 6.55969 21.5931 6.79799 21.7447C7.18794 21.983 7.36125 22.4596 7.18794 22.9362C6.94964 23.1745 6.86298 23.5645 6.86298 23.9761C6.94964 24.691 7.42624 25.016 7.81619 25.081C8.20614 25.081 8.5311 24.8427 8.5311 24.691C8.61775 24.561 8.55276 24.561 8.55276 24.4744Z" fill="black"/>
<path d="M31.6026 23.1313C31.6026 23.0446 31.516 22.7414 31.3643 22.2648L31.0394 21.5498C31.6026 20.7483 31.6026 19.9684 31.516 19.5784C31.4293 19.1018 31.191 18.6252 30.8011 18.1486C30.4111 17.672 29.4579 17.1954 28.2664 16.8705L27.6381 16.7188C27.6381 16.7188 27.6381 15.2023 27.5515 14.5741C27.5515 14.0975 27.4648 13.3826 27.2265 12.6677C26.9882 11.7145 26.5116 10.8479 25.8834 10.2847C27.4648 8.61655 28.5047 6.71013 28.5047 5.12867C28.5047 2.1174 24.7785 1.16419 20.0991 3.07061L19.1459 3.46056C19.1459 3.46056 17.4128 1.72745 17.3262 1.72745C12.1918 -2.86528 -4.20766 15.4406 1.01332 19.8817L2.11817 20.8349C1.79322 21.6365 1.72823 22.5031 1.79322 23.4563C1.94486 24.6478 2.59478 25.8393 3.52632 26.7925C4.47953 27.659 5.73603 28.2223 7.0142 28.2223C9.07226 32.9883 13.7516 35.8263 19.2109 35.9996C25.0818 36.1513 30.0645 33.3783 32.1226 28.4606C32.2742 28.1356 32.8375 26.5542 32.8375 25.1244C32.9674 23.6729 32.1659 23.1313 31.6026 23.1313ZM7.51247 26.8575C7.36082 26.8575 7.12252 26.9441 6.9492 26.8575C5.2161 26.7708 3.22303 25.1894 3.07138 23.283C2.91974 21.2249 3.93794 19.6434 5.84435 19.2318C6.08265 19.1452 6.32096 19.1452 6.64591 19.1452C7.68578 19.2318 9.26723 20.0117 9.65718 22.3081C9.96047 24.4745 9.50554 26.5325 7.51247 26.8575ZM5.54106 17.9753C4.34955 18.2136 3.33135 18.8419 2.68143 19.7951C2.29149 19.4701 1.57658 18.8419 1.48992 18.6036C0.450061 16.6972 2.59478 12.906 4.11125 10.8263C7.75077 5.60528 13.535 1.6408 16.1563 2.33404C16.6329 2.48569 18.0627 4.1538 18.0627 4.1538C18.0627 4.1538 15.3764 5.67027 12.9068 7.72833C9.57053 10.198 7.03586 13.9242 5.54106 17.9753ZM24.2369 26.0559L24.3236 25.9693C24.3236 25.8826 24.2369 25.8826 24.2369 25.8826C24.2369 25.8826 21.464 26.2726 18.8426 25.3194C19.1676 24.3661 19.8825 24.6911 21.0523 24.8427C23.1104 24.9944 25.0168 24.6911 26.36 24.2795C27.5515 23.9545 29.133 23.2396 30.3245 22.3081C30.7144 23.1746 30.8877 24.2145 30.8877 24.2145C30.8877 24.2145 31.2127 24.1278 31.451 24.3011C31.6893 24.4528 31.8409 24.7778 31.7759 25.5793C31.5376 27.1608 30.8227 28.3523 29.8045 29.5438C29.1763 30.2587 28.2881 30.8869 27.3565 31.3636C26.8799 31.6019 26.3167 31.8402 25.7751 31.9918C21.4856 33.335 17.2179 31.9051 15.8747 28.6556C15.788 28.4173 15.6364 28.179 15.6364 27.854C15.0731 25.7093 15.5497 23.1746 17.1529 21.5932C17.2395 21.5065 17.3045 21.3549 17.3045 21.2032C17.3045 21.0516 17.2179 20.9649 17.1529 20.8783C16.5896 20.0767 14.7049 18.7336 15.0948 16.1122C15.3331 14.2058 17.0012 12.9493 18.496 13.0143H18.886C19.5142 13.0143 20.1641 13.1659 20.6191 13.1659C21.4856 13.1659 22.3522 13.0793 23.3054 12.2994C23.6303 12.0611 23.8686 11.8228 24.3452 11.7361C24.4319 11.7361 24.4969 11.6495 24.7352 11.7361C24.9735 11.7361 25.2118 11.8228 25.3634 11.9744C26.165 12.5377 26.23 13.7075 26.3167 14.6607C26.3167 15.224 26.4033 16.4805 26.4033 16.8055C26.49 17.607 26.6416 17.7587 27.1182 17.9103C27.3565 17.997 27.5948 18.062 27.9198 18.1486C28.9596 18.4736 29.5879 18.7119 29.9778 19.1018C30.2161 19.3401 30.3028 19.5784 30.3678 19.8167C30.5194 20.6833 29.6529 21.7881 27.5082 22.828C25.1251 23.9329 22.3522 24.1712 20.3808 23.9329L19.6659 23.8462C18.0844 23.6079 17.2179 25.666 18.1494 27.0091C18.7776 27.8757 20.4458 28.5256 22.0272 28.5256C25.8401 28.5256 28.7647 26.9441 29.8045 25.5143L29.8912 25.3627C29.9778 25.276 29.8912 25.211 29.8045 25.276C28.938 25.9043 24.9735 28.2873 20.7707 27.5724C20.7707 27.5724 20.2941 27.4857 19.8175 27.3341C19.4276 27.1824 18.7127 26.8575 18.5393 26.0559C22.0922 27.0958 24.2369 26.0559 24.2369 26.0559ZM12.3435 10.8479C13.6217 9.33145 15.2681 7.98829 16.6979 7.27339C16.7846 7.27339 16.7846 7.27339 16.7846 7.36005C16.6979 7.59835 16.4596 7.9883 16.3946 8.31325C16.3946 8.39991 16.4813 8.39991 16.4813 8.39991C17.3478 7.77166 18.9293 7.12174 20.2941 7.05675C20.3808 7.05675 20.3808 7.14341 20.3808 7.14341C20.1425 7.29506 19.9908 7.53336 19.7525 7.77166C19.7525 7.77166 19.7525 7.85831 19.8392 7.85831C20.7924 7.85831 22.1355 8.18327 23.0021 8.72487C23.0887 8.72487 23.0021 8.87651 22.9154 8.87651C21.5723 8.55156 19.4276 8.31326 17.1312 8.87651C15.0731 9.35312 13.5567 10.1547 12.4518 10.9346C12.3435 10.9129 12.2785 10.9129 12.3435 10.8479Z" fill="black"/>
<path d="M125.774 14.4004C123.803 14.4004 122.915 15.8302 122.525 16.6967C122.286 17.26 122.286 17.4117 122.135 17.4117C121.897 17.4117 122.048 16.9351 122.221 16.4585C122.46 15.4186 122.308 14.6387 122.308 14.6387H119.535V27.9619H123.348V23.7592C123.825 24.5607 124.626 25.3406 125.883 25.3406C128.656 25.3406 129.999 23.0443 129.999 19.8813C129.977 16.3068 128.309 14.4004 125.774 14.4004ZM124.756 22.8059C123.89 22.8059 123.24 21.7011 123.24 20.1846C123.24 18.6682 123.868 17.5633 124.756 17.5633C125.796 17.5633 126.273 18.5165 126.273 20.1846C126.251 21.9394 125.861 22.8059 124.756 22.8059Z" fill="black"/>
<path d="M50.4069 14.4002C48.7388 14.4002 47.9589 15.7434 47.5473 16.5449C47.309 17.0215 47.309 17.4115 47.0707 17.4115C46.8324 17.4115 46.9841 17.0865 46.8324 16.3716C46.5941 15.4184 45.7926 14.4002 44.1461 14.4002C42.413 14.4002 41.6114 15.9167 41.2865 16.6966C41.0482 17.2598 41.0482 17.4115 40.8965 17.4115C40.6582 17.4115 40.8099 16.9349 40.9832 16.4583C41.2215 15.4184 41.0698 14.6385 41.0698 14.6385H38.2969V25.1021H42.0231V19.8811C42.0231 18.8413 42.413 17.5848 43.2146 17.5848C44.0811 17.5848 44.2544 18.213 44.2544 19.4045V25.1021H48.0673V19.8811C48.0673 18.9279 48.4572 17.5848 49.2588 17.5848C50.1253 17.5848 50.2986 18.538 50.2986 19.4045V25.0371H53.9382V18.8629C53.8948 16.155 52.9416 14.4002 50.4069 14.4002ZM114.77 14.4002C113.102 14.4002 112.322 15.7434 111.911 16.5449C111.672 17.0215 111.672 17.4115 111.434 17.4115C111.196 17.4115 111.347 17.0215 111.196 16.3716C110.871 15.4184 110.242 14.4002 108.509 14.4002C106.776 14.4002 105.975 15.9167 105.65 16.6966C105.411 17.2598 105.411 17.4115 105.26 17.4115C105.021 17.4115 105.173 16.9349 105.346 16.4583C105.585 15.4184 105.433 14.6385 105.433 14.6385H102.66V25.1021H106.473V19.8811C106.473 18.8413 106.863 17.5848 107.664 17.5848C108.531 17.5848 108.704 18.213 108.704 19.4045V25.1021H112.517V19.8811C112.517 18.9279 112.907 17.5848 113.709 17.5848C114.575 17.5848 114.748 18.538 114.748 19.4045V25.0371H118.475V18.8629C118.258 16.155 117.305 14.4002 114.77 14.4002ZM60.394 14.4002C57.4694 14.4002 55.3896 15.4401 55.3896 15.4401V18.603C55.3896 18.603 57.686 17.2598 59.5924 17.2598C61.1089 17.2598 61.2605 18.0614 61.1739 18.7763C61.1739 18.7763 60.7839 18.6896 59.4408 18.6896C56.3428 18.6896 54.7614 20.1194 54.7614 22.3292C54.7614 24.4739 56.4945 25.3404 58.0109 25.3404C60.1557 25.3404 61.1089 23.9106 61.4122 23.1957C61.6505 22.7191 61.6505 22.3941 61.8021 22.3941C62.0404 22.3941 61.9538 22.6324 61.9538 23.1091C61.9538 23.9106 61.9538 24.5389 62.1054 25.0805H64.9867V19.9245C64.9 16.6966 63.7952 14.4002 60.394 14.4002ZM59.4408 22.6541C58.5742 22.8924 58.0976 22.5675 58.0976 22.0259C58.0976 21.2243 58.9642 20.8344 60.1557 20.8344C60.7189 20.8344 61.1955 20.921 61.1955 20.921C61.1739 21.2243 60.394 22.4158 59.4408 22.6541ZM71.1609 11.4756H74.9737V25.1021H71.1609C71.1609 25.0371 71.1609 11.4756 71.1609 11.4756ZM79.1765 19.8811C79.1765 18.9279 80.043 18.0614 81.6245 18.0614C83.3576 18.0614 84.7874 18.9279 85.1124 19.1012V15.4401C85.1124 15.4401 84.0075 14.4002 81.2995 14.4002C78.4399 14.4002 76.0786 16.0683 76.0786 19.7078C76.0786 23.3474 78.2233 25.3404 81.2995 25.3404C83.6826 25.3404 85.1774 23.9973 85.1774 23.9973V20.5094C84.7008 20.7477 83.4443 21.6142 81.6895 21.6142C79.8048 21.7009 79.1765 20.8344 79.1765 19.8811ZM92.803 14.4002C90.5933 14.4002 89.7918 16.4583 89.6401 16.8482C89.4885 17.2382 89.4018 17.4115 89.2502 17.4115C89.0119 17.4115 89.1635 16.9349 89.2502 16.6966C89.4018 16.1333 89.8134 14.7901 89.8134 13.057C89.8134 11.8655 89.6618 11.4756 89.6618 11.4756H86.4122V25.1021H90.225V19.8811C90.225 19.0146 90.55 17.5848 91.5032 17.5848C92.3048 17.5848 92.5431 18.148 92.5431 19.3179V25.1021H96.3559V19.5562C96.2043 16.8699 95.8143 14.4002 92.803 14.4002ZM97.4824 14.6385V25.1021H101.295V14.6385C101.295 14.6385 100.667 15.0285 99.3888 15.0285C98.1107 14.9635 97.4824 14.6385 97.4824 14.6385Z" fill="black"/>
<path d="M99.3901 14.3357C100.658 14.3357 101.686 13.6567 101.686 12.8192C101.686 11.9817 100.658 11.3027 99.3901 11.3027C98.1219 11.3027 97.0938 11.9817 97.0938 12.8192C97.0938 13.6567 98.1219 14.3357 99.3901 14.3357Z" fill="black"/>
<path d="M66.1777 14.6396V25.1033H69.9689V14.6396C69.9689 14.6396 69.3407 15.0296 68.0625 15.0296C68.0625 14.9646 66.1777 14.6396 66.1777 14.6396Z" fill="black"/>
<path d="M68.0639 14.3357C69.3322 14.3357 70.3603 13.6567 70.3603 12.8192C70.3603 11.9817 69.3322 11.3027 68.0639 11.3027C66.7957 11.3027 65.7676 11.9817 65.7676 12.8192C65.7676 13.6567 66.7957 14.3357 68.0639 14.3357Z" fill="black"/>
</svg>
