<svg xmlns="http://www.w3.org/2000/svg" xmlns:xlink="http://www.w3.org/1999/xlink" viewBox="0 0 100 28"><path d="M 21.613 4.079 C 21.512 4.071 19.546 4.041 19.546 4.041 C 19.546 4.041 17.901 2.449 17.738 2.287 C 17.678 2.226 17.596 2.195 17.51 2.182 L 17.511 26.54 L 24.882 24.714 C 24.882 24.714 21.874 4.443 21.855 4.304 C 21.836 4.165 21.713 4.088 21.613 4.079 Z" fill="rgb(13,12,34)"></path><path d="M 21.612 4.079 C 21.713 4.087 21.835 4.164 21.854 4.303 C 21.874 4.442 24.881 24.714 24.881 24.714 L 17.509 26.541 L 0.5 23.608 C 0.5 23.608 2.53 7.963 2.605 7.412 C 2.706 6.683 2.73 6.66 3.506 6.417 C 3.523 6.411 4.046 6.25 4.878 5.993 C 5.245 5.88 5.671 5.748 6.141 5.603 C 6.305 4.432 6.884 2.919 7.644 1.714 C 8.725 0.003 10.058 -0.961 11.396 -0.999 C 12.09 -1.019 12.669 -0.785 13.12 -0.303 C 13.152 -0.268 13.183 -0.232 13.214 -0.196 C 13.222 -0.196 13.229 -0.197 13.237 -0.198 C 13.301 -0.203 13.365 -0.209 13.429 -0.209 L 13.433 -0.209 C 14.469 -0.207 15.327 0.382 15.913 1.496 C 16.094 1.841 16.221 2.185 16.308 2.465 C 16.44 2.424 16.559 2.387 16.662 2.356 C 16.963 2.263 17.133 2.21 17.134 2.21 C 17.258 2.173 17.575 2.124 17.738 2.286 C 17.9 2.448 19.545 4.04 19.545 4.04 C 19.545 4.04 21.512 4.07 21.612 4.079 Z M 14.612 2.988 C 14.914 2.895 15.197 2.808 15.457 2.728 C 15.246 2.045 14.746 0.899 13.73 0.707 C 14.046 1.52 14.127 2.459 14.137 3.135 C 14.3 3.085 14.458 3.036 14.612 2.988 Z M 10.407 4.286 L 13.247 3.41 C 13.256 2.673 13.176 1.582 12.805 0.812 C 12.411 0.974 12.079 1.258 11.841 1.512 C 11.202 2.196 10.681 3.239 10.407 4.286 Z M 12.228 0.099 C 12.002 -0.049 11.738 -0.118 11.423 -0.111 C 9.358 -0.051 7.556 3.165 7.095 5.308 C 7.518 5.178 7.962 5.041 8.418 4.9 C 8.749 4.798 9.087 4.693 9.427 4.588 C 9.687 3.227 10.339 1.815 11.189 0.906 C 11.517 0.555 11.866 0.286 12.228 0.099 Z M 12.567 11.051 L 13.424 7.858 C 13.424 7.858 12.685 7.491 11.243 7.583 C 7.499 7.819 5.802 10.429 5.965 13.005 C 6.074 14.724 7.09 15.443 7.981 16.073 C 8.676 16.564 9.294 17.002 9.346 17.818 C 9.374 18.268 9.094 18.905 8.309 18.955 C 7.107 19.03 5.605 17.901 5.605 17.901 L 5.031 20.335 C 5.031 20.335 6.523 21.928 9.232 21.758 C 11.49 21.616 13.056 19.816 12.89 17.184 C 12.762 15.161 11.333 14.247 10.203 13.525 C 9.465 13.054 8.855 12.664 8.819 12.099 C 8.802 11.837 8.82 10.793 10.48 10.689 C 11.612 10.618 12.567 11.051 12.567 11.051 Z" fill="rgb(13,12,34)"></path><path d="M 34.589 14.544 C 33.742 14.085 33.306 13.699 33.306 13.168 C 33.306 12.492 33.911 12.057 34.856 12.057 C 35.956 12.057 36.938 12.516 36.938 12.516 L 37.713 10.15 C 37.713 10.15 37.001 9.594 34.904 9.594 C 31.986 9.594 29.964 11.26 29.964 13.602 C 29.964 14.93 30.908 15.944 32.168 16.668 C 33.185 17.247 33.548 17.657 33.548 18.261 C 33.548 18.888 33.04 19.395 32.096 19.395 C 30.688 19.395 29.359 18.671 29.359 18.671 L 28.536 21.037 C 28.536 21.037 29.764 21.857 31.829 21.857 C 34.832 21.857 36.988 20.385 36.988 17.729 C 36.987 16.306 35.898 15.292 34.589 14.544 Z" fill="rgb(13,12,34)"></path><path d="M 46.552 9.571 C 45.075 9.571 43.913 10.271 43.017 11.333 L 42.968 11.309 L 44.252 4.622 L 40.91 4.622 L 37.665 21.641 L 41.007 21.641 L 42.121 15.823 C 42.556 13.626 43.694 12.275 44.76 12.275 C 45.511 12.275 45.802 12.782 45.802 13.507 C 45.802 13.965 45.753 14.521 45.657 14.979 L 44.398 21.641 L 47.74 21.641 L 49.047 14.762 C 49.193 14.037 49.29 13.169 49.29 12.589 C 49.288 10.706 48.296 9.571 46.552 9.571 Z" fill="rgb(13,12,34)"></path><path d="M 56.844 9.571 C 52.824 9.571 50.161 13.192 50.161 17.223 C 50.161 19.806 51.758 21.882 54.762 21.882 C 58.709 21.882 61.373 18.358 61.373 14.23 C 61.373 11.84 59.968 9.571 56.844 9.571 Z M 55.197 19.324 C 54.059 19.324 53.574 18.358 53.574 17.151 C 53.574 15.244 54.568 12.13 56.384 12.13 C 57.57 12.13 57.957 13.144 57.957 14.134 C 57.957 16.186 56.965 19.324 55.197 19.324 Z" fill="rgb(13,12,34)"></path><path d="M 69.921 9.571 C 67.665 9.571 66.385 11.551 66.385 11.551 L 66.337 11.551 L 66.531 9.764 L 63.576 9.764 C 63.431 10.972 63.164 12.806 62.899 14.182 L 60.574 26.372 L 63.916 26.372 L 64.835 21.447 L 64.909 21.447 C 64.909 21.447 65.594 21.882 66.87 21.882 C 70.793 21.882 73.359 17.875 73.359 13.819 C 73.359 11.575 72.366 9.571 69.921 9.571 Z M 66.724 19.372 C 65.857 19.372 65.343 18.889 65.343 18.889 L 65.9 15.775 C 66.288 13.699 67.378 12.323 68.54 12.323 C 69.557 12.323 69.872 13.264 69.872 14.158 C 69.872 16.306 68.589 19.372 66.724 19.372 Z" fill="rgb(13,12,34)"></path><path d="M 78.13 4.791 C 77.064 4.791 76.217 5.636 76.217 6.722 C 76.217 7.712 76.846 8.388 77.791 8.388 L 77.839 8.388 C 78.881 8.388 79.776 7.688 79.801 6.457 C 79.801 5.491 79.147 4.791 78.13 4.791 Z" fill="rgb(13,12,34)"></path><path d="M 73.457 21.64 L 76.798 21.64 L 79.075 9.837 L 75.708 9.837 Z" fill="rgb(13,12,34)"></path><path d="M 87.574 9.813 L 85.249 9.813 L 85.37 9.257 C 85.564 8.123 86.242 7.109 87.356 7.109 C 87.951 7.109 88.421 7.278 88.421 7.278 L 89.075 4.671 C 89.075 4.671 88.494 4.381 87.258 4.381 C 86.072 4.381 84.886 4.719 83.99 5.492 C 82.851 6.457 82.319 7.857 82.052 9.257 L 81.956 9.813 L 80.406 9.813 L 79.921 12.324 L 81.472 12.324 L 79.704 21.641 L 83.046 21.641 L 84.814 12.324 L 87.114 12.324 Z" fill="rgb(13,12,34)"></path><path d="M 95.614 9.837 C 95.614 9.837 93.524 15.084 92.587 17.948 L 92.538 17.948 C 92.474 17.025 91.714 9.837 91.714 9.837 L 88.203 9.837 L 90.214 20.675 C 90.263 20.916 90.238 21.061 90.141 21.23 C 89.753 21.978 89.099 22.703 88.324 23.234 C 87.695 23.693 86.993 23.982 86.436 24.175 L 87.356 27 C 88.034 26.855 89.438 26.3 90.625 25.189 C 92.151 23.765 93.555 21.569 95.008 18.575 L 99.1 9.836 L 95.614 9.836 Z" fill="rgb(13,12,34)"></path></svg>