<svg width="150" height="31" viewBox="0 0 150 31" fill="none" xmlns="http://www.w3.org/2000/svg">
<g clip-path="url(#clip0_1536_10719)">
<path d="M109.646 24.5271H107.35C107.18 24.5306 107.011 24.4998 106.853 24.4367C106.695 24.3736 106.552 24.2794 106.431 24.1597C106.31 24.0401 106.215 23.8974 106.151 23.7403C106.087 23.5831 106.055 23.4146 106.057 23.2448H106.014C105.411 24.4167 103.914 24.9432 102.51 24.9432C98.7087 24.9432 96.4805 21.9541 96.4805 18.5233C96.4805 14.5916 99.3126 12.1204 102.51 12.1204C103.191 12.0792 103.871 12.2138 104.485 12.5113C105.099 12.8088 105.626 13.2591 106.014 13.8188H106.057C106.053 13.6502 106.084 13.4826 106.147 13.326C106.21 13.1695 106.303 13.0271 106.422 12.9075C106.541 12.7878 106.683 12.6933 106.84 12.6296C106.996 12.5659 107.164 12.5342 107.333 12.5365H109.646V24.5271ZM103.055 21.5719C103.456 21.578 103.855 21.5023 104.227 21.3495C104.598 21.1967 104.935 20.97 105.215 20.6832C105.496 20.3964 105.716 20.0554 105.86 19.6812C106.005 19.307 106.072 18.9072 106.057 18.5063C106.099 18.0891 106.052 17.6678 105.92 17.2697C105.788 16.8717 105.573 16.5059 105.29 16.196C105.007 15.8862 104.662 15.6392 104.277 15.4713C103.892 15.3033 103.477 15.218 103.057 15.221C102.637 15.224 102.222 15.3152 101.84 15.4886C101.457 15.6621 101.116 15.9139 100.837 16.2278C100.559 16.5416 100.35 16.9105 100.223 17.3104C100.097 17.7102 100.056 18.1322 100.104 18.5488C100.094 19.3387 100.399 20.1001 100.95 20.6665C101.502 21.233 102.255 21.5585 103.046 21.5719H103.055ZM113.72 8.52834H114.817V13.4791C115.273 13.0247 115.818 12.6694 116.418 12.4356C117.018 12.2018 117.66 12.0945 118.304 12.1204C120.813 12.1204 124.206 13.9122 124.206 18.4469C124.206 22.7608 121.204 24.9262 118.151 24.9262C117.487 24.9483 116.828 24.8046 116.234 24.508C115.64 24.2114 115.129 23.7714 114.749 23.2279V24.5101H111.16V11.0165C111.175 10.3497 111.452 9.71561 111.931 9.25039C112.41 8.78518 113.052 8.52593 113.72 8.52834ZM117.589 21.5804C118.374 21.5488 119.116 21.2177 119.662 20.6557C120.209 20.0936 120.519 19.3433 120.527 18.5598C120.536 17.7764 120.243 17.0194 119.709 16.4453C119.175 15.8712 118.441 15.5238 117.658 15.4747C117.261 15.47 116.867 15.5453 116.5 15.6961C116.133 15.8469 115.8 16.0701 115.521 16.3524C115.242 16.6346 115.024 16.9701 114.878 17.3388C114.732 17.7074 114.662 18.1016 114.672 18.4979C114.65 18.8937 114.71 19.2899 114.846 19.6621C114.983 20.0343 115.194 20.3748 115.467 20.6626C115.741 20.9504 116.07 21.1795 116.435 21.3358C116.799 21.4922 117.192 21.5725 117.589 21.5719V21.5804ZM127.651 8.52834H128.714V13.4791C129.17 13.0252 129.715 12.6701 130.315 12.4363C130.915 12.2025 131.557 12.095 132.201 12.1204C134.71 12.1204 138.103 13.9122 138.103 18.4469C138.103 22.7608 135.101 24.9262 132.048 24.9262C131.384 24.9483 130.725 24.8046 130.131 24.508C129.537 24.2114 129.026 23.7714 128.646 23.2279V24.5101H125.133V11.0165C125.149 10.357 125.42 9.72919 125.889 9.26514C126.359 8.80108 126.99 8.53695 127.651 8.52834ZM131.512 21.5804C132.296 21.5488 133.038 21.2177 133.585 20.6557C134.131 20.0936 134.441 19.3433 134.45 18.5598C134.459 17.7764 134.166 17.0194 133.632 16.4453C133.098 15.8712 132.363 15.5238 131.58 15.4747C131.183 15.47 130.789 15.5453 130.422 15.6961C130.055 15.8469 129.722 16.0701 129.443 16.3524C129.165 16.6346 128.946 16.9701 128.8 17.3388C128.654 17.7074 128.584 18.1016 128.595 18.4979C128.573 18.8937 128.632 19.2899 128.769 19.6621C128.905 20.0343 129.117 20.3748 129.39 20.6626C129.663 20.9504 129.992 21.1795 130.357 21.3358C130.722 21.4922 131.115 21.5725 131.512 21.5719V21.5804ZM142.636 24.5271H139.124V15.0416C139.114 14.7108 139.17 14.3812 139.29 14.0725C139.41 13.7638 139.59 13.4823 139.821 13.2447C140.052 13.007 140.328 12.8181 140.634 12.6892C140.939 12.5603 141.267 12.4939 141.599 12.4941H142.628L142.636 24.5271Z" fill="#51AF33"/>
<path d="M140.883 11.8482C141.922 11.8482 142.763 11.0079 142.763 9.97144C142.763 8.93496 141.922 8.09473 140.883 8.09473C139.845 8.09473 139.004 8.93496 139.004 9.97144C139.004 11.0079 139.845 11.8482 140.883 11.8482Z" fill="#51AF33"/>
<path d="M94.8301 20.9093C94.2184 20.8722 93.6464 20.5943 93.2397 20.1365L92.6699 19.4062L92.3807 19.0665C93.5408 18.8534 94.5832 18.2253 95.3128 17.2999C96.0423 16.3745 96.4089 15.2152 96.344 14.0393C96.3662 13.2135 96.2037 12.3932 95.8682 11.6382C95.5327 10.8831 95.0328 10.2122 94.4049 9.67443C93.3673 8.87619 92.2786 8.51953 89.472 8.51953H84.3691V24.5268H88.2984V19.7374L89.8207 21.6481L90.4246 22.4038C90.9664 23.0491 91.6394 23.572 92.3989 23.938C93.1584 24.304 93.9871 24.5047 94.8301 24.5268H96.4205V20.9093H94.8301ZM89.7272 16.5869H88.3239V12.1456H89.7697C91.3431 12.1456 92.4062 12.8504 92.4062 14.3025C92.4317 15.0753 92.1511 16.5869 89.7527 16.5869H89.7272ZM149.499 20.9093C149.119 20.8952 148.747 20.7965 148.411 20.6205C148.146 20.4772 147.932 20.256 147.799 19.9871C147.665 19.7181 147.617 19.4144 147.662 19.1175V15.2621H150.001V12.4598H147.662V8.52802H146.599C145.922 8.52802 145.273 8.79643 144.795 9.27419C144.316 9.75195 144.048 10.3999 144.048 11.0756V19.1514C144.031 19.8692 144.161 20.5828 144.43 21.2487C144.698 21.9147 145.1 22.5191 145.61 23.0252C146.12 23.5312 146.728 23.9284 147.396 24.1924C148.065 24.4564 148.78 24.5817 149.499 24.5608H150.018V20.9093H149.499Z" fill="#51AF33"/>
<path d="M41.2064 12.1458H37.5748V11.0164C37.5597 10.6857 37.6123 10.3555 37.7293 10.0458C37.8463 9.7361 38.0253 9.45344 38.2553 9.21506C38.4853 8.97668 38.7615 8.78758 39.067 8.65928C39.3726 8.53098 39.7012 8.46618 40.0327 8.46883H48.8097V12.0864H45.2972V24.5271H43.7663C43.0896 24.5271 42.4407 24.2587 41.9622 23.7809C41.4837 23.3031 41.2149 22.6551 41.2149 21.9795L41.2064 12.1458Z" fill="#254F17"/>
<path d="M59.8057 24.5267H57.5094C57.3394 24.5301 57.1704 24.4994 57.0126 24.4363C56.8548 24.3731 56.7113 24.279 56.5906 24.1593C56.47 24.0397 56.3747 23.897 56.3105 23.7398C56.2462 23.5827 56.2143 23.4142 56.2166 23.2444H56.1316C55.5277 24.4163 54.0309 24.9428 52.6276 24.9428C48.8259 24.9428 46.5977 21.9537 46.5977 18.5229C46.5977 14.5912 49.4298 12.12 52.6276 12.12C53.3086 12.0788 53.9887 12.2134 54.6024 12.5109C55.2161 12.8083 55.7428 13.2587 56.1316 13.8184H56.1741C56.1707 13.6498 56.2012 13.4822 56.264 13.3256C56.3268 13.1691 56.4205 13.0267 56.5396 12.9071C56.6586 12.7874 56.8005 12.6929 56.9569 12.6292C57.1133 12.5654 57.2809 12.5338 57.4498 12.5361H59.7631L59.8057 24.5267ZM53.2144 21.5715C53.6161 21.5776 54.0149 21.5019 54.3864 21.3491C54.7578 21.1963 55.0943 20.9696 55.3751 20.6828C55.656 20.3959 55.8755 20.055 56.0202 19.6808C56.1648 19.3065 56.2317 18.9068 56.2166 18.5059C56.2582 18.0887 56.2115 17.6673 56.0794 17.2693C55.9472 16.8713 55.7327 16.5054 55.4498 16.1956C55.1668 15.8858 54.8217 15.6388 54.4369 15.4708C54.0521 15.3029 53.6362 15.2176 53.2163 15.2206C52.7963 15.2236 52.3817 15.3148 51.9994 15.4882C51.617 15.6617 51.2755 15.9135 50.997 16.2274C50.7185 16.5412 50.5092 16.9101 50.3828 17.3099C50.2564 17.7098 50.2157 18.1318 50.2632 18.5484C50.2542 19.3397 50.5597 20.1024 51.113 20.6691C51.6662 21.2358 52.4219 21.5603 53.2144 21.5715ZM66.601 15.8819C66.601 15.6442 66.533 14.9818 65.4784 14.9818C64.7215 14.9818 64.4663 15.4573 64.4663 15.78C64.4663 16.4254 65.3168 16.7991 66.3034 17.0793C68.336 17.6398 70.4962 18.2427 70.4962 20.8327C70.4962 23.4228 68.268 24.8919 65.6145 24.8919C63.7944 24.8919 61.0559 24.0427 60.7327 20.9007H64.2962C64.3069 21.0659 64.3506 21.2274 64.4248 21.3755C64.499 21.5236 64.6022 21.6554 64.7282 21.7631C64.8543 21.8707 65.0007 21.9521 65.1587 22.0023C65.3168 22.0525 65.4833 22.0706 65.6485 22.0556C66.2523 22.0556 66.8987 21.7244 66.8987 21.1384C66.8987 20.2128 66.0482 20.1109 63.7179 19.2193C62.1615 18.7267 60.8688 17.7077 60.8603 16.0942C60.8603 13.7165 63.0205 12.137 65.5124 12.137C67.0943 12.137 69.8159 12.7569 70.1135 15.9074L66.601 15.8819ZM71.3893 21.3253V24.5267H75.0123V18.8286C75.0123 18.8286 75.5141 19.5674 76.9174 21.7074C78.7629 24.5352 82.42 24.5522 82.5731 24.5522H83.4236V21.3762H82.5731C82.5731 21.3762 80.4129 21.3762 79.4944 19.9411L78.2441 18.0644L78.0996 17.8096L82.6156 12.5276H78.3632L75.0378 16.85H74.9953V11.0161C75.0026 10.6822 74.9412 10.3505 74.8148 10.0413C74.6884 9.7322 74.4997 9.45231 74.2605 9.219C74.0212 8.9857 73.7365 8.80397 73.424 8.68509C73.1115 8.56621 72.7779 8.51271 72.4438 8.52792H71.3893V21.3253Z" fill="#254F17"/>
<path d="M32.6588 14.1921C30.9579 11.3728 29.7162 11.0246 28.6446 10.7104C27.7345 10.4471 26.9436 10.2179 25.4297 7.67878C24.3458 5.85638 22.9663 4.2264 21.3474 2.85537C19.3232 1.17396 17.8604 0.825795 17.0099 0.825795C16.4548 0.813962 15.9101 0.977415 15.4535 1.29285L14.7646 1.78538C14.5603 1.7224 14.3489 1.68531 14.1353 1.67499C13.792 1.66408 13.4554 1.77209 13.1827 1.9807C13.0145 2.12488 12.8868 2.31036 12.8122 2.51883C12.7377 2.72731 12.7188 2.95159 12.7575 3.16957C12.9213 3.91165 13.2929 4.59197 13.8291 5.1312C14.0672 5.41144 14.3394 5.71714 14.6796 6.03135C12.5041 5.63642 10.262 5.83948 8.19313 6.61879C6.12428 7.3981 4.30655 8.72435 2.9344 10.4556H2.67075C2.21742 10.4499 1.77028 10.561 1.3725 10.7782C0.974729 10.9954 0.639761 11.3113 0.399955 11.6955C0.197897 12.011 0.0679887 12.3671 0.0194783 12.7384C-0.0290321 13.1098 0.00504894 13.4872 0.119295 13.8439C0.238459 14.2297 0.438503 14.5858 0.706129 14.8884C-0.0701907 17.762 0.235882 20.82 1.56637 23.4834C2.89687 26.1467 5.15938 28.2304 7.92539 29.3397C10.6914 30.449 13.7688 30.507 16.5747 29.5026C19.3807 28.4982 21.7203 26.5012 23.1504 23.8899C23.3572 23.9019 23.5645 23.9019 23.7713 23.8899C24.2855 23.9062 24.796 23.7984 25.2596 23.5757C25.5151 23.453 25.7346 23.2666 25.897 23.0346C26.0594 22.8026 26.1591 22.5327 26.1867 22.2509C26.2108 21.9624 26.1564 21.6728 26.0291 21.4127C25.9019 21.1525 25.7065 20.9316 25.4637 20.7733C25.146 20.5686 24.8029 20.4059 24.4432 20.2893C24.4942 20.0175 24.5367 19.7345 24.5707 19.4401C25.4181 19.718 26.3072 19.8473 27.1987 19.8222C27.5815 19.8222 27.9897 19.8222 28.5255 19.7713C31.4427 19.593 32.5993 18.5145 33.0586 17.6483C33.4328 17.0114 33.6624 15.8225 32.6588 14.1921Z" fill="#51AF33"/>
<path d="M31.9269 14.6758C28.9161 9.68259 27.8785 13.2832 24.6637 8.13706C22.1123 3.97602 18.1575 1.01233 16.2439 1.87851C16.2198 1.88775 16.1992 1.90406 16.1846 1.92529C16.17 1.94651 16.1621 1.97165 16.1621 1.9974C16.1621 2.02314 16.17 2.04829 16.1846 2.06951C16.1992 2.09073 16.2198 2.10704 16.2439 2.11628C18.1405 2.88905 22.1973 6.26884 23.9748 9.6741C23.9804 9.68302 23.9842 9.69295 23.9859 9.70333C23.9877 9.71371 23.9873 9.72432 23.985 9.73457C23.9826 9.74482 23.9782 9.75451 23.9721 9.76307C23.966 9.77164 23.9582 9.77892 23.9493 9.78449C23.9404 9.79007 23.9304 9.79383 23.92 9.79557C23.9096 9.79731 23.899 9.79699 23.8887 9.79462C23.8785 9.79225 23.8688 9.78789 23.8602 9.78178C23.8516 9.77568 23.8443 9.76794 23.8387 9.75902C21.6615 7.00763 14.9342 1.79359 13.7775 2.71072C12.825 3.4665 17.8853 8.26444 22.0102 10.3535C22.0328 10.3643 22.053 10.3796 22.0696 10.3983C22.0862 10.4171 22.0989 10.4391 22.1068 10.4628C22.1147 10.4866 22.1178 10.5117 22.1158 10.5367C22.1138 10.5617 22.1068 10.586 22.0952 10.6082C21.9081 10.9479 21.4489 11.4574 20.1902 11.4149C18.0129 11.4149 15.9377 8.205 11.2261 8.14555C9.7964 8.12676 8.38001 8.42118 7.07663 9.00805C5.77325 9.59493 4.61459 10.46 3.68225 11.5423C3.66549 11.5561 3.64445 11.5637 3.62272 11.5637C3.60099 11.5637 3.57994 11.5561 3.56319 11.5423C3.16116 11.3304 2.69449 11.2757 2.25422 11.3887C1.81394 11.5018 1.43162 11.7745 1.18183 12.1537C0.938739 12.5431 0.856954 13.0117 0.953784 13.4603C1.05062 13.9088 1.31846 14.3021 1.70062 14.557C1.73594 14.5781 1.76285 14.6108 1.7768 14.6495C1.79075 14.6882 1.79088 14.7305 1.77717 14.7693C1.43352 15.84 1.2557 16.9568 1.24987 18.0811C1.27004 20.6662 2.31154 23.1388 4.14787 24.9612C5.9842 26.7836 8.46686 27.8085 11.056 27.8129C12.9139 27.8397 14.7377 27.3134 16.2949 26.3013C17.8003 25.3927 18.9059 24.1953 18.6168 23.3291C18.2 22.0723 16.38 22.4799 14.5344 23.2017C14.5095 23.2086 14.483 23.2072 14.4589 23.1976C14.4349 23.1881 14.4146 23.171 14.4011 23.1489C14.3876 23.1269 14.3818 23.101 14.3843 23.0753C14.3869 23.0496 14.3978 23.0254 14.4154 23.0064C15.1847 22.2078 15.7017 21.2009 15.902 20.111C16.1024 19.0211 15.9771 17.8965 15.5419 16.8772C15.1068 15.8578 14.3808 14.9889 13.4546 14.3785C12.5284 13.7681 11.4428 13.4433 10.333 13.4445C9.20569 13.3782 8.08644 13.6716 7.13704 14.2822C6.18764 14.8928 5.45728 15.789 5.05153 16.8413C5.04251 16.8762 5.01997 16.9061 4.98887 16.9244C4.95777 16.9427 4.92065 16.948 4.88569 16.9389C4.85073 16.9299 4.82078 16.9074 4.80244 16.8764C4.7841 16.8453 4.77886 16.8083 4.78788 16.7734C5.07477 15.4619 5.78707 14.2817 6.81428 13.4157C7.84149 12.5498 9.1262 12.0465 10.4691 11.9839C11.5922 11.9157 12.7126 12.1565 13.7081 12.6801C14.7036 13.2037 15.5362 13.99 16.1151 14.9534C16.694 15.9168 16.9971 17.0203 16.9913 18.1438C16.9855 19.2673 16.6711 20.3676 16.0823 21.325C16.0591 21.3585 16.0481 21.3989 16.0511 21.4395C16.054 21.4801 16.0708 21.5184 16.0986 21.5482C16.1264 21.5779 16.1636 21.5973 16.204 21.603C16.2443 21.6088 16.2854 21.6006 16.3205 21.5798C16.9965 21.2042 17.5965 20.706 18.0895 20.1107C18.0974 20.1016 18.1073 20.0944 18.1183 20.0894C18.1293 20.0845 18.1412 20.0819 18.1533 20.0819C18.1653 20.0819 18.1772 20.0845 18.1882 20.0894C18.1992 20.0944 18.2091 20.1016 18.217 20.1107C21.2788 23.4565 25.1995 23.5074 25.3016 22.2167C25.4206 20.7391 21.636 21.6987 21.3979 18.0302C21.3979 18.0144 21.4023 17.9989 21.4106 17.9855C21.4189 17.9721 21.4307 17.9613 21.4449 17.9542C21.459 17.9471 21.4748 17.9442 21.4905 17.9456C21.5063 17.947 21.5213 17.9528 21.5339 17.9622C21.645 18.0532 21.7786 18.1126 21.9207 18.1342C22.0627 18.1557 22.208 18.1387 22.3411 18.0848C22.4743 18.0309 22.5905 17.9422 22.6774 17.828C22.7643 17.7138 22.8188 17.5783 22.8352 17.4357C22.8379 17.4214 22.8443 17.408 22.8537 17.3969C22.8631 17.3857 22.8752 17.3772 22.8889 17.372C22.9025 17.3669 22.9173 17.3654 22.9317 17.3676C22.9462 17.3699 22.9598 17.3758 22.9712 17.3848C24.6042 18.9728 26.2626 19.0832 28.5249 18.9133C31.7568 18.735 33.2621 16.9602 31.9269 14.6758ZM28.9927 14.6758C28.7762 14.6655 28.569 14.5854 28.4019 14.4476C28.2348 14.3099 28.1168 14.1218 28.0657 13.9116C28.0419 13.8132 28.0413 13.7107 28.0639 13.6121C28.0866 13.5135 28.1318 13.4214 28.1961 13.3432C28.2604 13.265 28.342 13.2028 28.4345 13.1614C28.527 13.1201 28.6278 13.1007 28.729 13.1048C28.9543 13.1139 29.1699 13.1984 29.3411 13.3448C29.5124 13.4911 29.6293 13.6908 29.6731 13.9116C29.6976 14.0121 29.6979 14.1171 29.674 14.2178C29.65 14.3185 29.6024 14.412 29.5352 14.4908C29.4679 14.5695 29.3829 14.6312 29.2871 14.6708C29.1913 14.7103 29.0875 14.7266 28.9842 14.7183L28.9927 14.6758Z" fill="white"/>
</g>
<defs>
<clipPath id="clip0_1536_10719">
<rect width="150" height="29.3553" fill="white" transform="translate(0 0.822266)"/>
</clipPath>
</defs>
</svg>
