<svg width="88" height="33" viewBox="0 0 88 33" fill="none" xmlns="http://www.w3.org/2000/svg">
<g clip-path="url(#clip0_1536_10709)">
<path fill-rule="evenodd" clip-rule="evenodd" d="M26.3714 4.8199C27.6264 3.81613 28.0127 2.20774 27.2344 1.22499C26.4558 0.243538 24.8076 0.260613 23.5526 1.26372C22.2977 2.26683 21.9116 3.87588 22.6897 4.85733C23.4683 5.84009 25.1163 5.82236 26.3714 4.8199ZM81.9913 19.1549C81.3251 20.3563 80.1706 21.5485 78.7892 21.8524C76.0892 22.4466 76.2932 18.4997 76.7462 16.8572C76.941 16.1481 77.228 15.5594 77.5281 15.0237C78.1289 13.9517 78.9703 12.7747 80.1778 12.3572C80.2595 12.329 80.3432 12.3041 80.4288 12.2828C81.6585 11.9797 82.5365 12.8521 82.9262 13.9607C83.5525 15.7378 82.8582 17.5906 81.9913 19.1549ZM63.7142 12.7554C64.4791 12.3605 65.7507 12.1943 66.005 13.4978C66.2926 14.9774 63.8888 17.8486 60.5304 19.197C59.2497 16.8467 61.6405 13.8658 63.7142 12.7554ZM87.9771 14.5043C87.8267 12.3072 86.9239 10.1644 84.9084 9.18423C83.0563 8.28418 79.5463 8.52183 77.6778 9.33456C70.9382 12.5131 71.3318 18.2791 71.0801 19.627C69.8818 20.4317 67.8499 21.0253 66.0108 21.2741C64.3935 21.4908 62.6401 21.408 61.6503 20.6373C65.008 19.2975 73.3133 15.1506 70.5957 10.3075C67.9264 5.36807 52.8252 10.2517 55.2389 21.0246C53.8549 21.8923 53.3031 21.6424 52.9658 20.3012C52.9056 17.9148 53.5169 16.0799 53.8601 13.9748C53.9745 13.2722 54.1183 12.5156 54.0464 11.7676C53.9222 10.4782 53.0017 9.19735 51.5857 9.07196C47.5526 9.07196 45.4045 12.0251 44.3927 12.7029C43.99 11.7289 45.3971 9.11004 41.2988 9.11004C38.1738 8.91507 36.0961 11.0181 34.5899 12.3285C34.382 11.5625 34.3116 10.679 33.9931 9.97069C33.7272 9.37789 33.2045 8.72534 32.5395 8.62293C31.8679 8.51986 31.1209 8.98268 30.6385 9.33456C29.1573 10.4164 27.6521 11.8425 26.6506 13.1888C27.1945 14.2031 28.7482 13.5029 29.7442 13.376C29.7013 14.371 29.6229 15.4111 29.4832 16.4081C29.2641 17.974 29.2211 19.3269 27.8432 20.3012C27.0145 20.8861 25.8533 21.3882 25.4207 20.114C25.0021 18.8792 25.3604 17.4278 25.5997 16.1915C25.8982 14.6518 26.0579 13.0952 26.2777 11.5425C26.3957 10.7108 26.5423 10.0606 25.9444 9.35557C25.483 8.812 24.7572 8.47982 24.0414 8.54875C22.1383 8.73059 21.2418 10.4716 19.9044 11.3181C20.5828 8.61045 18.425 7.84106 16.264 8.17192C15.4059 8.30388 12.5051 9.58862 11.5176 12.6657C13.2666 12.5311 14.183 12.7914 14.0149 14.7236C13.9445 15.5337 13.5379 16.4187 13.0833 17.2688C12.5582 18.2484 11.5741 20.1706 10.2841 18.7853C9.12247 17.538 9.21132 15.1519 8.94576 13.5632C8.79657 12.6713 8.64033 11.5617 8.34921 10.6442C8.09888 9.8545 7.52482 8.90522 6.82105 8.69777C6.06563 8.47522 5.13272 8.82316 4.58474 9.14746C2.83947 10.1775 1.50998 11.6445 0 12.8529V12.9649C0.298506 13.2516 0.378983 13.7235 0.82027 13.7876C1.85961 13.9402 2.84947 12.8144 3.53971 13.9876C3.96086 14.7031 4.09207 15.4878 4.36128 16.2584C4.72105 17.288 4.9989 18.4071 5.29309 19.5895C5.79112 21.5911 6.40192 24.5822 8.12575 25.3161C9.00578 25.6903 10.3266 25.1899 10.9959 24.7915C12.8095 23.7129 14.2215 22.1524 15.4315 20.5625C16.6309 18.9856 17.8386 17.1408 18.7855 15.248C19.3663 14.0877 19.7539 13.1067 21.3949 13.3388C21.2867 15.753 20.5369 17.8006 20.0902 19.8883C19.9329 20.624 19.7289 21.4257 19.7177 22.1721C19.6975 23.5066 20.253 24.8145 21.2458 25.0915C21.9808 25.295 23.0038 25.2182 23.7061 25.1659C26.0836 24.9925 28.1698 23.4169 29.4612 22.1196C30.176 22.9861 31.0798 25.2046 34.4515 25.2046C32.9039 21.8014 33.8991 13.6414 38.0558 14.0133C39.2735 14.4838 38.7257 16.5315 38.4659 17.6803C38.2867 18.4756 36.663 25.798 42.9761 25.2412C42.9761 23.8513 42.4268 16.1417 46.5648 14.0966C46.9362 13.903 48.2345 13.894 48.3064 14.5364C48.6287 17.4454 47.2925 20.0524 47.3369 22.9948C47.3709 27.6366 54.5237 23.7385 56.0966 22.8464C56.9994 23.5133 59.6661 26.149 65.7873 24.754C66.9379 24.4632 67.9519 24.1568 68.8808 23.7064C69.8569 23.2335 70.7604 22.7145 71.7509 22.396C71.6155 22.4399 72.9191 24.0077 73.0629 24.118C73.6886 24.6019 74.4463 24.9181 75.1929 25.1592C76.9299 25.7172 78.7748 25.5131 80.5262 25.0969C84.0598 24.2552 86.4506 21.5805 87.5443 18.1781C87.8967 17.0818 88.0647 15.784 87.9771 14.5043Z" fill="#00ADEF"/>
</g>
<defs>
<clipPath id="clip0_1536_10709">
<rect width="88" height="32" fill="white" transform="translate(0 0.5)"/>
</clipPath>
</defs>
</svg>
